<svg width="77" height="77" viewBox="0 0 77 77" fill="none" xmlns="http://www.w3.org/2000/svg">
<path fill-rule="evenodd" clip-rule="evenodd" d="M15.8388 1.00941e-06L22.1202 2.00344e-06C23.5593 2.00344e-06 24.726 1.16665 24.726 2.60579C24.726 4.04492 23.5593 5.21157 22.1202 5.21157H15.9474C13.5694 5.21157 11.9426 5.2136 10.6829 5.31652C9.45356 5.41696 8.80497 5.60034 8.34169 5.8364C7.26301 6.38601 6.38601 7.26301 5.8364 8.34169C5.60034 8.80498 5.41696 9.45356 5.31652 10.6829C5.2136 11.9426 5.21157 13.5694 5.21157 15.9474V22.1202C5.21157 23.5593 4.04492 24.726 2.60579 24.726C1.16665 24.726 2.00344e-06 23.5593 2.00344e-06 22.1202L1.00941e-06 15.8388C-3.0551e-05 13.5961 -5.63955e-05 11.7556 0.122261 10.2585C0.249033 8.70688 0.520071 7.29611 1.19286 5.97569C2.24212 3.91639 3.91639 2.24212 5.97569 1.19286C7.29611 0.520071 8.70688 0.249033 10.2585 0.122261C11.7556 -5.63955e-05 13.5961 -3.0551e-05 15.8388 1.00941e-06ZM65.406 5.31652C64.1463 5.2136 62.5195 5.21157 60.1415 5.21157H53.9687C52.5295 5.21157 51.3629 4.04492 51.3629 2.60579C51.3629 1.16665 52.5295 2.00344e-06 53.9687 2.00344e-06L60.2501 1.00941e-06C62.4928 -3.0551e-05 64.3333 -5.63955e-05 65.8304 0.122261C67.382 0.249033 68.7928 0.520071 70.1132 1.19286C72.1725 2.24212 73.8468 3.91639 74.896 5.97569C75.5688 7.29611 75.8398 8.70688 75.9666 10.2585C76.0889 11.7556 76.0889 13.596 76.0889 15.8388V22.1202C76.0889 23.5593 74.9222 24.726 73.4831 24.726C72.044 24.726 70.8773 23.5593 70.8773 22.1202V15.9474C70.8773 13.5694 70.8753 11.9426 70.7724 10.6829C70.6719 9.45356 70.4885 8.80498 70.2525 8.34169C69.7029 7.26301 68.8259 6.38602 67.7472 5.8364C67.2839 5.60034 66.6353 5.41696 65.406 5.31652ZM2.60579 51.3629C4.04492 51.3629 5.21157 52.5295 5.21157 53.9687V60.1415C5.21157 62.5195 5.2136 64.1463 5.31652 65.406C5.41696 66.6353 5.60034 67.2839 5.8364 67.7472C6.38602 68.8259 7.26301 69.7029 8.34169 70.2525C8.80498 70.4885 9.45356 70.6719 10.6829 70.7724C11.9426 70.8753 13.5694 70.8773 15.9474 70.8773H22.1202C23.5593 70.8773 24.726 72.044 24.726 73.4831C24.726 74.9222 23.5593 76.0889 22.1202 76.0889H15.8387C13.596 76.0889 11.7556 76.0889 10.2585 75.9666C8.70688 75.8398 7.29611 75.5688 5.97569 74.896C3.91639 73.8468 2.24212 72.1725 1.19286 70.1132C0.520071 68.7928 0.249033 67.382 0.122261 65.8304C-5.63955e-05 64.3333 -3.0551e-05 62.4928 1.00941e-06 60.2501L2.00344e-06 53.9687C2.00344e-06 52.5295 1.16665 51.3629 2.60579 51.3629ZM73.4831 51.3629C74.9222 51.3629 76.0889 52.5295 76.0889 53.9687V60.2501C76.0889 62.4928 76.0889 64.3333 75.9666 65.8304C75.8398 67.382 75.5688 68.7928 74.896 70.1132C73.8468 72.1725 72.1725 73.8468 70.1132 74.896C68.7928 75.5688 67.382 75.8398 65.8304 75.9666C64.3333 76.0889 62.4928 76.0889 60.2501 76.0889H53.9687C52.5295 76.0889 51.3629 74.9222 51.3629 73.4831C51.3629 72.044 52.5295 70.8773 53.9687 70.8773H60.1415C62.5195 70.8773 64.1463 70.8753 65.406 70.7724C66.6353 70.6719 67.2839 70.4885 67.7472 70.2525C68.8259 69.7029 69.7029 68.8259 70.2525 67.7472C70.4885 67.2839 70.6719 66.6353 70.7724 65.406C70.8753 64.1463 70.8773 62.5195 70.8773 60.1415V53.9687C70.8773 52.5295 72.044 51.3629 73.4831 51.3629Z" fill="#E4E7F1"/>
<path d="M38.9519 44.926C41.8878 44.926 44.2678 42.546 44.2678 39.6102C44.2678 36.6743 41.8878 34.2943 38.9519 34.2943C36.016 34.2943 33.6361 36.6743 33.6361 39.6102C33.6361 42.546 36.016 44.926 38.9519 44.926Z" fill="#AFB4C4"/>
<path fill-rule="evenodd" clip-rule="evenodd" d="M24.7763 28.5355H29.5102C30.4501 28.5355 31.3515 28.1621 32.0161 27.4975L33.0411 26.4726C33.7057 25.8079 34.6071 25.4346 35.547 25.4346H41.9139C42.8538 25.4346 43.7552 25.8079 44.4198 26.4726L45.4447 27.4975C46.1093 28.1621 47.0107 28.5355 47.9506 28.5355H52.2415C54.1988 28.5355 55.7854 30.1221 55.7854 32.0794V48.4699C55.7854 50.4271 54.1988 52.0138 52.2415 52.0138H24.7763C22.8191 52.0138 21.2324 50.4271 21.2324 48.4699V32.0794C21.2324 30.1221 22.8191 28.5355 24.7763 28.5355ZM47.8117 39.6102C47.8117 44.5033 43.845 48.4699 38.9519 48.4699C34.0588 48.4699 30.0922 44.5033 30.0922 39.6102C30.0922 34.7171 34.0588 30.7504 38.9519 30.7504C43.845 30.7504 47.8117 34.7171 47.8117 39.6102Z" fill="#AFB4C4"/>
</svg>
