<svg width="1525" height="381" viewBox="0 0 1525 381" fill="none" xmlns="http://www.w3.org/2000/svg">
<g filter="url(#filter0_b_0_2927)">
<g clip-path="url(#clip0_0_2927)">
<rect x="-1.52588e-05" y="94.3918" width="454" height="293" rx="22" transform="rotate(-12 -1.52588e-05 94.3918)" fill="#F2F3F8"/>
<g opacity="0.44">
<path d="M64.9584 111.108C66.3705 111.364 67.218 112.157 67.5007 113.487C67.7103 114.473 67.497 115.393 66.8609 116.248C66.2214 117.088 65.1817 117.66 63.7419 117.966C61.3943 118.465 59.6219 117.861 58.4245 116.152L59.9237 114.779C60.6503 115.965 61.7962 116.393 63.3612 116.06C64.1437 115.894 64.7113 115.601 65.064 115.183C65.429 114.745 65.555 114.26 65.4419 113.728C65.3421 113.259 65.0806 112.914 64.6575 112.693C64.2499 112.469 63.7488 112.42 63.1541 112.546L61.4404 112.91L61.0462 111.056L62.3139 110.786C62.9086 110.66 63.3403 110.421 63.6091 110.069C63.8746 109.702 63.9541 109.268 63.8476 108.767C63.7412 108.267 63.4591 107.901 63.0013 107.671C62.5591 107.438 62.0016 107.393 61.3286 107.536C60.014 107.816 59.24 108.561 59.0067 109.772L57.1353 109.164C57.5989 107.266 58.8636 106.097 60.9294 105.658C62.2127 105.385 63.292 105.499 64.1673 106C65.0583 106.498 65.6052 107.224 65.8081 108.179C66.0609 109.368 65.7777 110.345 64.9584 111.108ZM76.6822 102.629L78.7246 102.195L81.2195 113.932L79.1771 114.367L78.748 112.348C78.06 114.113 76.7458 115.202 74.8051 115.615C73.1618 115.964 71.6347 115.667 70.2238 114.724C68.8095 113.765 67.9194 112.425 67.5535 110.703C67.1875 108.982 67.4572 107.403 68.3625 105.967C69.2645 104.516 70.5371 103.616 72.1804 103.267C74.1211 102.854 75.7647 103.315 77.1113 104.648L76.6822 102.629ZM74.6442 113.588C75.8336 113.335 76.7426 112.725 77.3711 111.757C77.9963 110.774 78.1825 109.687 77.9296 108.498C77.6768 107.308 77.0665 106.399 76.0987 105.771C75.1275 105.127 74.0472 104.931 72.8578 105.184C71.684 105.433 70.7846 106.05 70.1594 107.033C69.5309 108.001 69.343 109.08 69.5958 110.269C69.8487 111.459 70.4606 112.375 71.4318 113.019C72.3996 113.648 73.4704 113.837 74.6442 113.588ZM92.6177 99.2416L95.1126 110.979L93.1172 111.404L91.3059 102.882L88.8507 109.685L88.5924 109.74L83.5824 104.524L85.3937 113.045L83.3748 113.474L80.8799 101.737L83.0631 101.272L88.0112 106.428L90.4344 99.7057L92.6177 99.2416ZM97.6756 105.282C98.1019 106.287 98.7522 107 99.6265 107.419C100.516 107.835 101.517 107.925 102.628 107.689C104.178 107.36 105.183 106.549 105.644 105.257L107.591 105.873C106.825 107.885 105.291 109.135 102.99 109.624C101.128 110.02 99.4869 109.763 98.0669 108.855C96.6593 107.927 95.7659 106.571 95.3866 104.787C95.0107 103.019 95.2693 101.426 96.1623 100.009C97.0552 98.5928 98.4095 97.6915 100.225 97.3057C101.946 96.9397 103.477 97.2524 104.816 98.2436C106.168 99.2158 107.025 100.555 107.388 102.261C107.451 102.558 107.492 102.868 107.512 103.191L97.6756 105.282ZM100.634 99.2307C99.5385 99.4635 98.6974 99.9695 98.1105 100.748C97.5203 101.512 97.2489 102.428 97.2963 103.498L105.137 101.831C104.729 100.757 104.111 100.005 103.284 99.5753C102.456 99.1459 101.573 99.0311 100.634 99.2307ZM115.818 94.3102L116.237 96.2821L112.247 97.1304L114.322 106.896L112.28 107.33L110.204 97.5645L106.19 98.4178L105.771 96.4458L115.818 94.3102ZM129.094 103.756L126.559 104.295L120.024 99.8693L121.206 105.433L119.164 105.867L116.669 94.1293L118.711 93.6952L119.814 98.8833L123.782 92.6174L126.411 92.0585L122.008 98.9322L129.094 103.756ZM136.201 89.9777L138.243 89.5436L140.738 101.281L138.696 101.715L138.267 99.6966C137.579 101.462 136.265 102.551 134.324 102.964C132.681 103.313 131.153 103.016 129.743 102.073C128.328 101.114 127.438 99.7736 127.072 98.0521C126.706 96.3306 126.976 94.752 127.881 93.3164C128.783 91.8652 130.056 90.9649 131.699 90.6156C133.64 90.2031 135.283 90.6634 136.63 91.9966L136.201 89.9777ZM134.163 100.937C135.352 100.684 136.261 100.074 136.89 99.1059C137.515 98.1225 137.701 97.036 137.448 95.8466C137.196 94.6571 136.585 93.7482 135.617 93.1197C134.646 92.4755 133.566 92.2798 132.377 92.5326C131.203 92.7821 130.303 93.3986 129.678 94.3821C129.05 95.3499 128.862 96.4286 129.115 97.618C129.367 98.8074 129.979 99.7242 130.951 100.368C131.918 100.997 132.989 101.186 134.163 100.937Z" fill="#142251"/>
<g clip-path="url(#clip1_0_2927)">
<path d="M39.1739 108.123C38.3458 107.533 37.1222 107.746 36.4849 108.727L30.246 118.334C30.0847 118.582 30.1402 118.843 30.3886 119.005C30.6371 119.166 30.8981 119.111 31.0594 118.862L36.22 110.916C36.5208 110.452 37.1401 110.321 37.6033 110.622C38.0665 110.922 38.1981 111.542 37.8973 112.005L32.7368 119.951C31.9738 121.126 30.4742 121.445 29.2993 120.682C28.1245 119.919 27.8058 118.419 28.5687 117.245L34.8076 107.638C36.015 105.778 38.496 105.199 40.3172 106.482C42.1616 107.694 42.7334 110.164 41.4554 111.979L34.1491 123.229C32.4619 125.827 29.1038 126.541 26.5057 124.854C23.9076 123.167 23.1938 119.809 24.881 117.211L31.1199 107.604C31.4207 107.14 32.0401 107.009 32.5032 107.309C32.9664 107.61 33.0981 108.23 32.7973 108.693L26.5584 118.3C25.4727 119.972 25.9233 122.091 27.595 123.177C29.2667 124.262 31.3862 123.812 32.4718 122.14L39.789 110.873C39.7969 110.86 39.8051 110.848 39.8135 110.837C40.404 110.008 40.1911 108.785 39.2099 108.148C39.1977 108.14 39.1857 108.132 39.1739 108.123Z" fill="#142251"/>
</g>
<path d="M414.118 28.1367C414.419 27.6735 415.038 27.5419 415.501 27.8427L421.779 31.9195L425.856 25.6418C426.156 25.1786 426.776 25.047 427.239 25.3478C427.702 25.6486 427.834 26.2679 427.533 26.7311L423.456 33.0088L429.734 37.0855C430.197 37.3863 430.329 38.0057 430.028 38.4688C429.727 38.932 429.108 39.0637 428.645 38.7629L422.367 34.6861L418.29 40.9638C417.989 41.427 417.37 41.5586 416.907 41.2578C416.444 40.957 416.312 40.3377 416.613 39.8745L420.689 33.5968L414.412 29.52C413.949 29.2192 413.817 28.5999 414.118 28.1367Z" fill="#142251"/>
<g clip-path="url(#clip2_0_2927)">
<path d="M369.684 35.5367C369.985 35.0735 370.604 34.9418 371.068 35.2426L374.626 37.5533C375.089 37.8541 375.221 38.4735 374.92 38.9366L367.988 49.6112C367.843 49.8336 367.616 49.9895 367.357 50.0447L364.423 50.6684C363.882 50.7833 363.351 50.4384 363.237 49.8982L362.613 46.9637C362.558 46.7043 362.608 46.4336 362.752 46.2112L369.684 35.5367ZM364.655 46.9531L364.985 48.5042L366.536 48.1745L372.698 38.686L370.817 37.4646L364.655 46.9531ZM357.453 41.9265C357.223 40.8461 357.913 39.784 358.993 39.5544L363.884 38.5148C364.424 38.4 364.955 38.7448 365.07 39.2851C365.185 39.8253 364.84 40.3563 364.3 40.4711L359.409 41.5107L361.904 53.2485L373.642 50.7535L372.602 45.8628C372.487 45.3226 372.832 44.7915 373.372 44.6767C373.913 44.5619 374.444 44.9067 374.558 45.447L375.598 50.3377C375.828 51.4181 375.138 52.4802 374.058 52.7098L362.32 55.2047C361.239 55.4344 360.177 54.7447 359.948 53.6643L357.453 41.9265Z" fill="#142251"/>
</g>
</g>
<path d="M463.864 269.803C463.401 269.502 463.27 268.883 463.57 268.42L471.195 256.678C471.496 256.215 472.115 256.084 472.579 256.384C473.042 256.685 473.173 257.305 472.873 257.768L465.248 269.509C464.947 269.972 464.328 270.104 463.864 269.803ZM469.147 270.849C468.684 270.548 468.552 269.929 468.853 269.466L474.299 261.079C474.6 260.616 475.22 260.484 475.683 260.785C476.146 261.086 476.278 261.705 475.977 262.168L470.53 270.555C470.23 271.018 469.61 271.15 469.147 270.849ZM474.43 271.895C473.967 271.594 473.835 270.975 474.136 270.512L477.403 265.48C477.704 265.016 478.324 264.885 478.787 265.186C479.25 265.486 479.382 266.106 479.081 266.569L475.813 271.601C475.512 272.064 474.893 272.196 474.43 271.895Z" fill="#142251" fill-opacity="0.44"/>
<rect x="11.6426" y="149.168" width="454" height="1" transform="rotate(-12 11.6426 149.168)" fill="#E4E7F1"/>
<path d="M261.914 194.328C267.681 206.236 262.852 222.048 250.046 238.082C237.265 254.084 216.646 270.154 191.21 282.474C165.774 294.793 140.381 301.007 119.902 301.114C99.3821 301.221 83.9814 295.207 78.2142 283.299C72.4469 271.391 77.2761 255.579 90.0824 239.545C102.863 223.543 123.482 207.473 148.918 195.153C174.354 182.834 199.747 176.62 220.226 176.513C240.746 176.406 256.147 182.42 261.914 194.328Z" stroke="#C3C7CF"/>
</g>
</g>
<circle cx="837" cy="66" r="4" fill="#142251"/>
<ellipse cx="846.505" cy="47.7128" rx="11.5" ry="8" transform="rotate(25.8444 846.505 47.7128)" fill="#AFB4C4"/>
<path d="M856.405 52.508C855.533 54.3078 853.673 55.4766 851.279 55.8548C848.888 56.2327 846.013 55.808 843.235 54.4626C840.458 53.1172 838.342 51.1247 837.156 49.0141C835.969 46.9015 835.733 44.7173 836.605 42.9176C837.477 41.1178 839.337 39.949 841.731 39.5707C844.122 39.1928 846.997 39.6175 849.774 40.9629C852.552 42.3083 854.667 44.3009 855.853 46.4115C857.04 48.524 857.276 50.7082 856.405 52.508Z" stroke="#142251" stroke-opacity="0.44"/>
<mask id="path-16-inside-1_0_2927" fill="white">
<path fill-rule="evenodd" clip-rule="evenodd" d="M855.814 41.1103L845.914 36.3151L841.681 45.0538C841.675 45.0657 841.669 45.0778 841.663 45.0899C841.657 45.102 841.652 45.1142 841.646 45.1264L841.461 45.5078L841.511 45.5319C841.167 47.1156 842.703 49.2045 845.196 50.4125C847.69 51.6204 850.281 51.53 851.311 50.2786L851.361 50.303L855.814 41.1103Z"/>
</mask>
<path fill-rule="evenodd" clip-rule="evenodd" d="M855.814 41.1103L845.914 36.3151L841.681 45.0538C841.675 45.0657 841.669 45.0778 841.663 45.0899C841.657 45.102 841.652 45.1142 841.646 45.1264L841.461 45.5078L841.511 45.5319C841.167 47.1156 842.703 49.2045 845.196 50.4125C847.69 51.6204 850.281 51.53 851.311 50.2786L851.361 50.303L855.814 41.1103Z" fill="#AFB4C4"/>
<path d="M845.914 36.3151L846.35 35.4151L845.45 34.9792L845.014 35.8792L845.914 36.3151ZM855.814 41.1103L856.714 41.5463L857.15 40.6463L856.25 40.2104L855.814 41.1103ZM841.681 45.0538L842.572 45.5081L842.577 45.499L842.581 45.4897L841.681 45.0538ZM841.646 45.1264L842.546 45.5623L842.551 45.5531L842.555 45.5437L841.646 45.1264ZM841.461 45.5078L840.561 45.0719L840.125 45.9718L841.025 46.4078L841.461 45.5078ZM841.511 45.5319L842.488 45.7439L842.655 44.9749L841.947 44.6319L841.511 45.5319ZM851.311 50.2786L851.747 49.3786L851.038 49.0356L850.538 49.6432L851.311 50.2786ZM851.361 50.303L850.925 51.203L851.825 51.6389L852.261 50.7389L851.361 50.303ZM845.478 37.2151L855.378 42.0103L856.25 40.2104L846.35 35.4151L845.478 37.2151ZM842.581 45.4897L846.814 36.7511L845.014 35.8792L840.781 44.6178L842.581 45.4897ZM842.563 45.5258C842.566 45.5199 842.569 45.514 842.572 45.5081L840.79 44.5994C840.781 44.6175 840.772 44.6357 840.763 44.654L842.563 45.5258ZM842.555 45.5437C842.558 45.5378 842.56 45.5318 842.563 45.5258L840.763 44.654C840.754 44.6723 840.746 44.6907 840.737 44.7091L842.555 45.5437ZM842.361 45.9437L842.546 45.5623L840.746 44.6905L840.561 45.0719L842.361 45.9437ZM841.947 44.6319L841.897 44.6078L841.025 46.4078L841.075 46.4319L841.947 44.6319ZM845.632 49.5125C844.509 48.9683 843.634 48.24 843.09 47.5136C842.531 46.7672 842.402 46.1435 842.488 45.7439L840.534 45.3198C840.277 46.504 840.743 47.7166 841.489 48.7126C842.25 49.7285 843.39 50.6487 844.761 51.3124L845.632 49.5125ZM850.538 49.6432C850.279 49.9589 849.709 50.2441 848.777 50.2681C847.869 50.2915 846.756 50.0567 845.632 49.5125L844.761 51.3124C846.131 51.9762 847.559 52.3001 848.828 52.2674C850.072 52.2354 851.313 51.8496 852.083 50.9139L850.538 49.6432ZM851.797 49.403L851.747 49.3786L850.875 51.1785L850.925 51.203L851.797 49.403ZM854.914 40.6744L850.461 49.8671L852.261 50.7389L856.714 41.5463L854.914 40.6744Z" fill="#142251" fill-opacity="0.44" mask="url(#path-16-inside-1_0_2927)"/>
<ellipse cx="853.263" cy="33.763" rx="9.5" ry="7.5" transform="rotate(25.8444 853.263 33.763)" fill="#AFB4C4"/>
<path d="M861.363 37.6864C859.722 41.0724 854.79 42.2805 850.211 40.0629C845.633 37.8452 843.523 33.2256 845.163 29.8397C846.803 26.4537 851.736 25.2455 856.314 27.4631C860.893 29.6808 863.003 34.3004 861.363 37.6864Z" stroke="#142251" stroke-opacity="0.44"/>
<ellipse cx="850.549" cy="31.3373" rx="4" ry="3.5" transform="rotate(25.8444 850.549 31.3373)" fill="#E4E7F1"/>
<rect x="841.668" y="54.2585" width="2" height="13" transform="rotate(25.8444 841.668 54.2585)" fill="#9DA7CA"/>
<circle cx="1194" cy="228" r="4" fill="#142251"/>
<ellipse cx="1203.5" cy="209.713" rx="11.5" ry="8" transform="rotate(25.8444 1203.5 209.713)" fill="#AFB4C4"/>
<path d="M1213.4 214.508C1212.53 216.308 1210.67 217.477 1208.28 217.855C1205.89 218.233 1203.01 217.808 1200.24 216.463C1197.46 215.117 1195.34 213.125 1194.16 211.014C1192.97 208.902 1192.73 206.717 1193.61 204.918C1194.48 203.118 1196.34 201.949 1198.73 201.571C1201.12 201.193 1204 201.618 1206.77 202.963C1209.55 204.308 1211.67 206.301 1212.85 208.412C1214.04 210.524 1214.28 212.708 1213.4 214.508Z" stroke="#142251" stroke-opacity="0.44"/>
<mask id="path-25-inside-2_0_2927" fill="white">
<path fill-rule="evenodd" clip-rule="evenodd" d="M1212.81 203.11L1202.91 198.315L1198.68 207.054C1198.68 207.066 1198.67 207.078 1198.66 207.09C1198.66 207.102 1198.65 207.114 1198.65 207.126L1198.46 207.508L1198.51 207.532C1198.17 209.116 1199.7 211.205 1202.2 212.412C1204.69 213.62 1207.28 213.53 1208.31 212.279L1208.36 212.303L1212.81 203.11Z"/>
</mask>
<path fill-rule="evenodd" clip-rule="evenodd" d="M1212.81 203.11L1202.91 198.315L1198.68 207.054C1198.68 207.066 1198.67 207.078 1198.66 207.09C1198.66 207.102 1198.65 207.114 1198.65 207.126L1198.46 207.508L1198.51 207.532C1198.17 209.116 1199.7 211.205 1202.2 212.412C1204.69 213.62 1207.28 213.53 1208.31 212.279L1208.36 212.303L1212.81 203.11Z" fill="#AFB4C4"/>
<path d="M1202.91 198.315L1203.35 197.415L1202.45 196.979L1202.01 197.879L1202.91 198.315ZM1212.81 203.11L1213.71 203.546L1214.15 202.646L1213.25 202.21L1212.81 203.11ZM1198.68 207.054L1199.57 207.508L1199.58 207.499L1199.58 207.49L1198.68 207.054ZM1198.65 207.126L1199.55 207.562L1199.55 207.553L1199.55 207.544L1198.65 207.126ZM1198.46 207.508L1197.56 207.072L1197.13 207.972L1198.03 208.408L1198.46 207.508ZM1198.51 207.532L1199.49 207.744L1199.66 206.975L1198.95 206.632L1198.51 207.532ZM1208.31 212.279L1208.75 211.379L1208.04 211.036L1207.54 211.643L1208.31 212.279ZM1208.36 212.303L1207.93 213.203L1208.83 213.639L1209.26 212.739L1208.36 212.303ZM1202.48 199.215L1212.38 204.01L1213.25 202.21L1203.35 197.415L1202.48 199.215ZM1199.58 207.49L1203.81 198.751L1202.01 197.879L1197.78 206.618L1199.58 207.49ZM1199.56 207.526C1199.57 207.52 1199.57 207.514 1199.57 207.508L1197.79 206.599C1197.78 206.617 1197.77 206.636 1197.76 206.654L1199.56 207.526ZM1199.55 207.544C1199.56 207.538 1199.56 207.532 1199.56 207.526L1197.76 206.654C1197.75 206.672 1197.75 206.691 1197.74 206.709L1199.55 207.544ZM1199.36 207.944L1199.55 207.562L1197.75 206.69L1197.56 207.072L1199.36 207.944ZM1198.95 206.632L1198.9 206.608L1198.03 208.408L1198.08 208.432L1198.95 206.632ZM1202.63 211.512C1201.51 210.968 1200.63 210.24 1200.09 209.514C1199.53 208.767 1199.4 208.143 1199.49 207.744L1197.53 207.32C1197.28 208.504 1197.74 209.717 1198.49 210.713C1199.25 211.729 1200.39 212.649 1201.76 213.312L1202.63 211.512ZM1207.54 211.643C1207.28 211.959 1206.71 212.244 1205.78 212.268C1204.87 212.291 1203.76 212.057 1202.63 211.512L1201.76 213.312C1203.13 213.976 1204.56 214.3 1205.83 214.267C1207.07 214.235 1208.31 213.85 1209.08 212.914L1207.54 211.643ZM1208.8 211.403L1208.75 211.379L1207.87 213.179L1207.93 213.203L1208.8 211.403ZM1211.91 202.674L1207.46 211.867L1209.26 212.739L1213.71 203.546L1211.91 202.674Z" fill="#142251" fill-opacity="0.44" mask="url(#path-25-inside-2_0_2927)"/>
<ellipse cx="1210.26" cy="195.763" rx="9.5" ry="7.5" transform="rotate(25.8444 1210.26 195.763)" fill="#AFB4C4"/>
<path d="M1218.36 199.686C1216.72 203.072 1211.79 204.281 1207.21 202.063C1202.63 199.845 1200.52 195.226 1202.16 191.84C1203.8 188.454 1208.74 187.245 1213.31 189.463C1217.89 191.681 1220 196.3 1218.36 199.686Z" stroke="#142251" stroke-opacity="0.44"/>
<ellipse cx="1207.55" cy="193.337" rx="4" ry="3.5" transform="rotate(25.8444 1207.55 193.337)" fill="#E4E7F1"/>
<rect x="1198.67" y="216.259" width="2" height="13" transform="rotate(25.8444 1198.67 216.259)" fill="#9DA7CA"/>
<circle cx="1495" cy="107" r="4" fill="#142251"/>
<ellipse cx="1504.5" cy="88.7128" rx="11.5" ry="8" transform="rotate(25.8444 1504.5 88.7128)" fill="#AFB4C4"/>
<path d="M1514.4 93.508C1513.53 95.3078 1511.67 96.4766 1509.28 96.8548C1506.89 97.2327 1504.01 96.808 1501.24 95.4626C1498.46 94.1172 1496.34 92.1247 1495.16 90.0141C1493.97 87.9015 1493.73 85.7173 1494.61 83.9176C1495.48 82.1178 1497.34 80.949 1499.73 80.5707C1502.12 80.1928 1505 80.6175 1507.77 81.9629C1510.55 83.3083 1512.67 85.3009 1513.85 87.4115C1515.04 89.524 1515.28 91.7082 1514.4 93.508Z" stroke="#142251" stroke-opacity="0.44"/>
<mask id="path-34-inside-3_0_2927" fill="white">
<path fill-rule="evenodd" clip-rule="evenodd" d="M1513.81 82.1103L1503.91 77.3151L1499.68 86.0538C1499.68 86.0657 1499.67 86.0778 1499.66 86.0899C1499.66 86.102 1499.65 86.1142 1499.65 86.1264L1499.46 86.5078L1499.51 86.5319C1499.17 88.1156 1500.7 90.2045 1503.2 91.4125C1505.69 92.6204 1508.28 92.53 1509.31 91.2786L1509.36 91.303L1513.81 82.1103Z"/>
</mask>
<path fill-rule="evenodd" clip-rule="evenodd" d="M1513.81 82.1103L1503.91 77.3151L1499.68 86.0538C1499.68 86.0657 1499.67 86.0778 1499.66 86.0899C1499.66 86.102 1499.65 86.1142 1499.65 86.1264L1499.46 86.5078L1499.51 86.5319C1499.17 88.1156 1500.7 90.2045 1503.2 91.4125C1505.69 92.6204 1508.28 92.53 1509.31 91.2786L1509.36 91.303L1513.81 82.1103Z" fill="#AFB4C4"/>
<path d="M1503.91 77.3151L1504.35 76.4151L1503.45 75.9792L1503.01 76.8792L1503.91 77.3151ZM1513.81 82.1103L1514.71 82.5463L1515.15 81.6463L1514.25 81.2104L1513.81 82.1103ZM1499.68 86.0538L1500.57 86.5081L1500.58 86.499L1500.58 86.4897L1499.68 86.0538ZM1499.65 86.1264L1500.55 86.5623L1500.55 86.5531L1500.55 86.5437L1499.65 86.1264ZM1499.46 86.5078L1498.56 86.0719L1498.13 86.9718L1499.03 87.4078L1499.46 86.5078ZM1499.51 86.5319L1500.49 86.7439L1500.66 85.9749L1499.95 85.6319L1499.51 86.5319ZM1509.31 91.2786L1509.75 90.3786L1509.04 90.0356L1508.54 90.6432L1509.31 91.2786ZM1509.36 91.303L1508.93 92.203L1509.83 92.6389L1510.26 91.7389L1509.36 91.303ZM1503.48 78.2151L1513.38 83.0103L1514.25 81.2104L1504.35 76.4151L1503.48 78.2151ZM1500.58 86.4897L1504.81 77.7511L1503.01 76.8792L1498.78 85.6178L1500.58 86.4897ZM1500.56 86.5258C1500.57 86.5199 1500.57 86.514 1500.57 86.5081L1498.79 85.5994C1498.78 85.6175 1498.77 85.6357 1498.76 85.654L1500.56 86.5258ZM1500.55 86.5437C1500.56 86.5378 1500.56 86.5318 1500.56 86.5258L1498.76 85.654C1498.75 85.6723 1498.75 85.6907 1498.74 85.7091L1500.55 86.5437ZM1500.36 86.9437L1500.55 86.5623L1498.75 85.6905L1498.56 86.0719L1500.36 86.9437ZM1499.95 85.6319L1499.9 85.6078L1499.03 87.4078L1499.08 87.4319L1499.95 85.6319ZM1503.63 90.5125C1502.51 89.9683 1501.63 89.24 1501.09 88.5136C1500.53 87.7672 1500.4 87.1435 1500.49 86.7439L1498.53 86.3198C1498.28 87.504 1498.74 88.7166 1499.49 89.7126C1500.25 90.7285 1501.39 91.6487 1502.76 92.3124L1503.63 90.5125ZM1508.54 90.6432C1508.28 90.9589 1507.71 91.2441 1506.78 91.2681C1505.87 91.2915 1504.76 91.0567 1503.63 90.5125L1502.76 92.3124C1504.13 92.9762 1505.56 93.3001 1506.83 93.2674C1508.07 93.2354 1509.31 92.8496 1510.08 91.9139L1508.54 90.6432ZM1509.8 90.403L1509.75 90.3786L1508.87 92.1785L1508.93 92.203L1509.8 90.403ZM1512.91 81.6744L1508.46 90.8671L1510.26 91.7389L1514.71 82.5463L1512.91 81.6744Z" fill="#142251" fill-opacity="0.44" mask="url(#path-34-inside-3_0_2927)"/>
<ellipse cx="1511.26" cy="74.763" rx="9.5" ry="7.5" transform="rotate(25.8444 1511.26 74.763)" fill="#AFB4C4"/>
<path d="M1519.36 78.6864C1517.72 82.0724 1512.79 83.2805 1508.21 81.0629C1503.63 78.8452 1501.52 74.2256 1503.16 70.8397C1504.8 67.4537 1509.74 66.2455 1514.31 68.4631C1518.89 70.6808 1521 75.3004 1519.36 78.6864Z" stroke="#142251" stroke-opacity="0.44"/>
<ellipse cx="1508.55" cy="72.3372" rx="4" ry="3.5" transform="rotate(25.8444 1508.55 72.3372)" fill="#E4E7F1"/>
<rect x="1499.67" y="95.2585" width="2" height="13" transform="rotate(25.8444 1499.67 95.2585)" fill="#9DA7CA"/>
<g opacity="0.44">
<path d="M205 52L837 67.5L1193 228.5" stroke="#142251"/>
<path d="M1193.5 228.5L1495 107" stroke="#142251"/>
</g>
<circle cx="205" cy="51" r="4" fill="#142251"/>
<ellipse cx="214.505" cy="32.7128" rx="11.5" ry="8" transform="rotate(25.8444 214.505 32.7128)" fill="#AFB4C4"/>
<path d="M224.405 37.508C223.533 39.3078 221.673 40.4766 219.279 40.8548C216.888 41.2327 214.013 40.808 211.235 39.4626C208.458 38.1172 206.342 36.1247 205.156 34.0141C203.969 31.9015 203.733 29.7173 204.605 27.9176C205.477 26.1178 207.337 24.949 209.73 24.5707C212.122 24.1928 214.997 24.6175 217.774 25.9629C220.552 27.3083 222.667 29.3009 223.853 31.4115C225.04 33.524 225.276 35.7082 224.405 37.508Z" stroke="#142251" stroke-opacity="0.44"/>
<mask id="path-45-inside-4_0_2927" fill="white">
<path fill-rule="evenodd" clip-rule="evenodd" d="M223.814 26.1103L213.914 21.3151L209.681 30.0538C209.675 30.0657 209.669 30.0778 209.663 30.0899C209.657 30.102 209.652 30.1142 209.646 30.1264L209.461 30.5078L209.511 30.5319C209.167 32.1156 210.703 34.2045 213.196 35.4125C215.69 36.6204 218.281 36.53 219.311 35.2786L219.361 35.303L223.814 26.1103Z"/>
</mask>
<path fill-rule="evenodd" clip-rule="evenodd" d="M223.814 26.1103L213.914 21.3151L209.681 30.0538C209.675 30.0657 209.669 30.0778 209.663 30.0899C209.657 30.102 209.652 30.1142 209.646 30.1264L209.461 30.5078L209.511 30.5319C209.167 32.1156 210.703 34.2045 213.196 35.4125C215.69 36.6204 218.281 36.53 219.311 35.2786L219.361 35.303L223.814 26.1103Z" fill="#AFB4C4"/>
<path d="M213.914 21.3151L214.35 20.4151L213.45 19.9792L213.014 20.8792L213.914 21.3151ZM223.814 26.1103L224.714 26.5463L225.15 25.6463L224.25 25.2104L223.814 26.1103ZM209.681 30.0538L210.572 30.5081L210.577 30.499L210.581 30.4897L209.681 30.0538ZM209.646 30.1264L210.546 30.5623L210.551 30.5531L210.555 30.5437L209.646 30.1264ZM209.461 30.5078L208.561 30.0719L208.125 30.9718L209.025 31.4078L209.461 30.5078ZM209.511 30.5319L210.488 30.7439L210.655 29.9749L209.947 29.6319L209.511 30.5319ZM219.311 35.2786L219.747 34.3786L219.038 34.0356L218.538 34.6432L219.311 35.2786ZM219.361 35.303L218.925 36.203L219.825 36.6389L220.261 35.7389L219.361 35.303ZM213.478 22.2151L223.378 27.0103L224.25 25.2104L214.35 20.4151L213.478 22.2151ZM210.581 30.4897L214.814 21.7511L213.014 20.8792L208.781 29.6178L210.581 30.4897ZM210.563 30.5258C210.566 30.5199 210.569 30.514 210.572 30.5081L208.79 29.5994C208.781 29.6175 208.772 29.6357 208.763 29.654L210.563 30.5258ZM210.555 30.5437C210.558 30.5378 210.56 30.5318 210.563 30.5258L208.763 29.654C208.754 29.6723 208.746 29.6907 208.737 29.7091L210.555 30.5437ZM210.361 30.9437L210.546 30.5623L208.746 29.6905L208.561 30.0719L210.361 30.9437ZM209.947 29.6319L209.897 29.6078L209.025 31.4078L209.075 31.4319L209.947 29.6319ZM213.632 34.5125C212.509 33.9683 211.634 33.24 211.09 32.5136C210.531 31.7672 210.402 31.1435 210.488 30.7439L208.534 30.3198C208.277 31.504 208.743 32.7166 209.489 33.7126C210.25 34.7285 211.39 35.6487 212.76 36.3124L213.632 34.5125ZM218.538 34.6432C218.279 34.9589 217.709 35.2441 216.777 35.2681C215.869 35.2915 214.756 35.0567 213.632 34.5125L212.76 36.3124C214.131 36.9762 215.559 37.3001 216.828 37.2674C218.072 37.2354 219.313 36.8496 220.083 35.9139L218.538 34.6432ZM219.797 34.403L219.747 34.3786L218.875 36.1785L218.925 36.203L219.797 34.403ZM222.914 25.6744L218.461 34.8671L220.261 35.7389L224.714 26.5463L222.914 25.6744Z" fill="#142251" fill-opacity="0.44" mask="url(#path-45-inside-4_0_2927)"/>
<ellipse cx="221.263" cy="18.763" rx="9.5" ry="7.5" transform="rotate(25.8444 221.263 18.763)" fill="#AFB4C4"/>
<path d="M229.363 22.6864C227.722 26.0724 222.79 27.2805 218.211 25.0629C213.633 22.8452 211.523 18.2256 213.163 14.8397C214.803 11.4537 219.736 10.2455 224.314 12.4631C228.893 14.6808 231.003 19.3004 229.363 22.6864Z" stroke="#142251" stroke-opacity="0.44"/>
<g filter="url(#filter1_f_0_2927)">
<ellipse cx="218.549" cy="16.3373" rx="4" ry="3.5" transform="rotate(25.8444 218.549 16.3373)" fill="#E4E7F1"/>
</g>
<rect x="209.668" y="39.2585" width="2" height="13" transform="rotate(25.8444 209.668 39.2585)" fill="#9DA7CA"/>
<defs>
<filter id="filter0_b_0_2927" x="-40" y="-40" width="584.997" height="460.989" filterUnits="userSpaceOnUse" color-interpolation-filters="sRGB">
<feFlood flood-opacity="0" result="BackgroundImageFix"/>
<feGaussianBlur in="BackgroundImageFix" stdDeviation="20"/>
<feComposite in2="SourceAlpha" operator="in" result="effect1_backgroundBlur_0_2927"/>
<feBlend mode="normal" in="SourceGraphic" in2="effect1_backgroundBlur_0_2927" result="shape"/>
</filter>
<filter id="filter1_f_0_2927" x="210.638" y="8.73633" width="15.8218" height="15.2019" filterUnits="userSpaceOnUse" color-interpolation-filters="sRGB">
<feFlood flood-opacity="0" result="BackgroundImageFix"/>
<feBlend mode="normal" in="SourceGraphic" in2="BackgroundImageFix" result="shape"/>
<feGaussianBlur stdDeviation="2" result="effect1_foregroundBlur_0_2927"/>
</filter>
<clipPath id="clip0_0_2927">
<rect x="-1.52588e-05" y="94.3918" width="454" height="293" rx="22" transform="rotate(-12 -1.52588e-05 94.3918)" fill="white"/>
</clipPath>
<clipPath id="clip1_0_2927">
<rect width="24" height="24" fill="white" transform="translate(18.977 106.716) rotate(-12)"/>
</clipPath>
<clipPath id="clip2_0_2927">
<rect width="24" height="24" fill="white" transform="translate(353.063 35.7031) rotate(-12)"/>
</clipPath>
</defs>
</svg>
