<svg width="1719" height="472" viewBox="0 0 1719 472" fill="none" xmlns="http://www.w3.org/2000/svg">
<rect x="1000.48" y="361.737" width="4.74173" height="13.216" fill="#142251"/>
<rect x="1009.97" y="365.042" width="4.74173" height="6.60801" fill="#142251"/>
<rect x="991" y="365.042" width="4.74173" height="6.60801" fill="#142251"/>
<rect x="1019.45" y="365.042" width="4.74173" height="6.60801" fill="#142251"/>
<rect x="1028.93" y="365.042" width="4.74173" height="6.60801" fill="#142251"/>
<rect x="1038.42" y="361.737" width="4.74173" height="13.216" fill="#142251"/>
<rect x="1047.9" y="358.433" width="4.74173" height="19.824" fill="#142251"/>
<rect x="1057.38" y="332.001" width="4.74174" height="72.6881" fill="#142251"/>
<rect x="1066.87" y="335.305" width="4.74173" height="66.0801" fill="#142251"/>
<rect x="1076.35" y="348.521" width="4.74173" height="39.6481" fill="#142251"/>
<rect x="1085.83" y="315.481" width="4.74173" height="105.728" fill="#142251"/>
<rect x="1095.32" y="325.393" width="4.74172" height="85.9041" fill="#142251"/>
<rect x="1104.8" y="275.833" width="4.74174" height="185.024" fill="#142251"/>
<rect x="1114.29" y="285.745" width="4.74173" height="165.2" fill="#142251"/>
<rect x="1123.77" y="302.265" width="4.74173" height="132.16" fill="#142251"/>
<rect x="1133.25" y="292.353" width="4.74174" height="151.984" fill="#142251"/>
<rect x="1142.74" y="322.089" width="4.74171" height="92.5121" fill="#142251"/>
<rect x="1152.22" y="341.913" width="4.74173" height="52.8641" fill="#142251"/>
<rect x="1161.7" y="351.825" width="4.74173" height="33.04" fill="#142251"/>
<rect x="1171.19" y="338.609" width="4.74173" height="59.4721" fill="#142251"/>
<rect x="1180.67" y="351.825" width="4.74173" height="33.04" fill="#142251"/>
<rect x="1199.64" y="335.305" width="4.74173" height="66.0801" fill="#AFB4C4"/>
<rect x="1209.12" y="355.129" width="4.74171" height="26.432" fill="#AFB4C4"/>
<rect x="1218.6" y="348.521" width="4.74173" height="39.6481" fill="#AFB4C4"/>
<rect x="1228.09" y="351.825" width="4.74173" height="33.04" fill="#AFB4C4"/>
<rect x="1237.57" y="355.129" width="4.74173" height="26.432" fill="#AFB4C4"/>
<rect x="1247.05" y="361.737" width="4.74173" height="13.216" fill="#AFB4C4"/>
<rect x="1256.54" y="358.433" width="4.74173" height="19.824" fill="#AFB4C4"/>
<rect x="1266.02" y="355.129" width="4.74173" height="26.432" fill="#AFB4C4"/>
<rect x="1275.5" y="365.042" width="4.74173" height="6.60801" fill="#AFB4C4"/>
<rect x="1284.99" y="361.737" width="4.74175" height="13.216" fill="#AFB4C4"/>
<rect x="1294.47" y="361.737" width="4.74173" height="13.216" fill="#AFB4C4"/>
<rect x="1303.96" y="365.042" width="4.74173" height="6.60801" fill="#AFB4C4"/>
<rect x="1313.44" y="361.737" width="4.74173" height="13.216" fill="#AFB4C4"/>
<rect x="1322.92" y="365.042" width="4.74173" height="6.60801" fill="#AFB4C4"/>
<rect x="1332.4" y="365.042" width="4.74173" height="6.60801" fill="#AFB4C4"/>
<rect x="1341.89" y="365.042" width="4.74173" height="6.60801" fill="#AFB4C4"/>
<rect x="1351.37" y="365.042" width="4.74173" height="6.60801" fill="#AFB4C4"/>
<rect x="1360.86" y="365.042" width="4.74173" height="6.60801" fill="#AFB4C4"/>
<rect x="1370.34" y="365.042" width="4.74173" height="6.60801" fill="#AFB4C4"/>
<rect x="1190.15" y="274.257" width="4.74173" height="191.632" fill="#E4E7F1"/>
<circle cx="1193.11" cy="274.644" r="9.51111" fill="#E4E7F1"/>
<circle cx="1193.11" cy="462.489" r="9.51111" fill="#E4E7F1"/>
<rect x="629.696" y="0.624125" width="319" height="379" rx="11.5" transform="rotate(16.9633 629.696 0.624125)" fill="white" stroke="#989EB1"/>
<mask id="mask0_10217_67" style="mask-type:alpha" maskUnits="userSpaceOnUse" x="561" y="29" width="348" height="344">
<rect x="639.188" y="26.0278" width="284.602" height="278.116" rx="12" transform="rotate(16.9633 639.188 26.0278)" fill="#E4E7F1"/>
</mask>
<g mask="url(#mask0_10217_67)">
<path d="M708.468 226.116C713.074 249.148 725.354 300.614 731.588 326.463C733.67 335.105 728.581 343.847 720.037 346.313C710.976 348.928 701.558 343.483 699.301 334.327L674.383 233.266C672.235 223.471 678.783 213.889 688.693 212.334C697.916 210.885 706.638 216.961 708.468 226.116Z" fill="#F2F3F8"/>
<path d="M731.617 326.361L752.86 413.159L720.597 421.971L698.975 333.21C696.918 323.83 703.192 314.654 712.678 313.162C721.512 311.777 729.864 317.594 731.617 326.361Z" fill="#F2F3F8"/>
<path d="M665.542 197.895L648.75 198.135L632.404 197.895L600.068 212.685L604.064 341.903H693.882L694.338 212.345L665.542 197.895Z" fill="#F2F3F8"/>
<path d="M652.33 234.038C652.33 235.091 651.477 235.946 650.424 235.946C649.369 235.946 648.516 235.091 648.516 234.038C648.516 232.985 649.369 232.132 650.424 232.132C651.477 232.132 652.33 232.985 652.33 234.038Z" fill="#F2F3F8"/>
<path d="M652.33 256.631C652.33 257.686 651.477 258.539 650.424 258.539C649.369 258.539 648.516 257.686 648.516 256.631C648.516 255.578 649.369 254.725 650.424 254.725C651.477 254.725 652.33 255.578 652.33 256.631Z" fill="#F2F3F8"/>
<path d="M652.33 279.225C652.33 280.28 651.477 281.133 650.424 281.133C649.369 281.133 648.516 280.28 648.516 279.225C648.516 278.172 649.369 277.319 650.424 277.319C651.477 277.319 652.33 278.172 652.33 279.225Z" fill="#F2F3F8"/>
<path d="M652.33 301.816C652.33 302.872 651.477 303.725 650.424 303.725C649.369 303.725 648.516 302.872 648.516 301.816C648.516 300.763 649.369 299.91 650.424 299.91C651.477 299.91 652.33 300.763 652.33 301.816Z" fill="#F2F3F8"/>
<path d="M652.33 324.411C652.33 325.466 651.477 326.319 650.424 326.319C649.369 326.319 648.516 325.466 648.516 324.411C648.516 323.357 649.369 322.504 650.424 322.504C651.477 322.504 652.33 323.357 652.33 324.411Z" fill="#F2F3F8"/>
<path d="M587.392 226.116C582.786 249.148 570.506 300.614 564.275 326.463C562.19 335.105 567.281 343.847 575.823 346.313C584.884 348.928 594.303 343.483 596.562 334.327L621.477 233.266C623.626 223.471 617.077 213.889 607.17 212.334C597.947 210.885 589.224 216.961 587.392 226.116Z" fill="#F2F3F8"/>
<path d="M564.243 326.361L543 413.159L575.263 421.971L596.885 333.21C598.942 323.83 592.671 314.654 583.182 313.162C574.349 311.777 565.996 317.594 564.243 326.361Z" fill="#F2F3F8"/>
<path d="M697.773 391.027H603.151L604.064 341.903H693.546L697.773 391.027Z" fill="#F2F3F8"/>
<path d="M602.932 390.439L600.05 503.897C599.705 514.147 607.923 522.644 618.18 522.644C627.464 522.644 635.251 515.632 636.221 506.396L647.627 393.531C649.016 380.298 638.64 368.775 625.335 368.775C613.248 368.775 603.336 378.36 602.932 390.439Z" fill="#F2F3F8"/>
<path d="M697.612 390.439L702.533 503.897C702.878 514.147 694.659 522.644 684.405 522.644C675.118 522.644 667.332 515.632 666.362 506.396L652.918 393.531C651.529 380.298 661.904 368.775 675.21 368.775C687.296 368.775 697.208 378.36 697.612 390.439Z" fill="#F2F3F8"/>
<path d="M672.59 193.91H664.178L667.171 201.01L672.59 193.91Z" fill="#F2F3F8"/>
<path d="M651.649 218.309C641.933 218.309 634.055 210.431 634.055 200.715V163.271H669.243V200.715C669.243 210.431 661.365 218.309 651.649 218.309Z" fill="#F2F3F8"/>
<path d="M655.306 218.309L644.749 203.632C643.315 201.2 641.358 199.102 639.009 197.475L634.62 194.437C633.691 193.794 632.461 193.735 631.472 194.286L627.044 196.754C626.023 197.324 625.455 198.432 625.606 199.564L627.427 213.265C627.604 214.616 629.321 215.163 630.293 214.18L639.982 204.376C640.52 203.83 641.441 203.902 641.884 204.525L655.306 220.747V218.309Z" fill="#F2F3F8"/>
<path d="M655.307 218.317L671.942 194.438C672.405 193.778 672.427 193.736 673.237 194.287L676.854 196.752C677.69 197.323 678.154 198.431 678.03 199.565L678.581 213.264C678.435 214.617 677.033 215.164 676.237 214.179L669.161 204.426C668.72 203.879 667.967 203.954 667.606 204.575L655.307 220.755V218.317Z" fill="#F2F3F8"/>
<path d="M681.515 116.514C680.107 111.294 676.8 103.926 664.991 98.4307C645.482 89.3506 635.208 108.634 635.208 108.634C629.951 108.062 625.583 109.911 623.079 114.968C620.732 119.706 623.03 128.616 623.741 131.718L628.017 151.397L631.772 132.679C635.461 120.367 641.071 115.353 641.071 115.353L658.9 113.904L677.805 149.605L681.483 128.479C681.951 125.799 682.145 123.069 681.996 120.352C681.911 118.78 681.758 117.414 681.515 116.514Z" fill="#F2F3F8"/>
<path d="M674.517 145.283C674.517 145.283 676.895 141.502 681.802 143.363C686.705 145.223 684.489 157.136 677.129 158.652C677.129 158.652 674.491 159.229 672.424 157.424C672.424 157.424 674.233 148.623 674.517 145.283Z" fill="#F2F3F8"/>
<path d="M628.66 145.149C628.66 145.149 625.755 141.44 621.095 143.36C616.248 145.362 618.411 157.134 625.769 158.653C625.769 158.653 628.407 159.228 630.475 157.424C630.475 157.424 628.943 148.489 628.66 145.149Z" fill="#F2F3F8"/>
<path d="M622.072 147.565C622.072 147.565 626.18 146.191 629.098 152.246L622.072 147.565Z" fill="#F2F3F8"/>
<path d="M627.103 149.283C627.103 149.283 622.63 151.674 625.586 155.268L627.103 149.283Z" fill="#F2F3F8"/>
<path d="M679.087 133.979C679.089 141.159 678.383 156.186 673.968 165.104C669.824 173.476 662.967 177.984 653.978 178.252C644.992 178.52 638.294 175.055 632.929 164.187C627.561 153.322 627.818 134.113 627.818 134.113C627.818 134.113 627.818 108.458 653.174 108.458C679.88 108.458 679.087 133.979 679.087 133.979Z" fill="#F2F3F8"/>
<path d="M661.983 140.996V152.451C661.983 152.706 661.934 152.95 661.844 153.176C661.493 154.055 660.481 154.476 659.566 154.231L657.596 153.708" fill="#F2F3F8"/>
<path d="M650.951 141.922C650.951 143.243 649.881 144.315 648.558 144.315C647.237 144.315 646.164 143.243 646.164 141.922C646.164 140.601 647.237 139.529 648.558 139.529C649.881 139.529 650.951 140.601 650.951 141.922Z" fill="#F2F3F8"/>
<path d="M653.366 136.163L653.453 131.614L645.017 131.765C643.951 131.784 642.926 132.169 642.109 132.852L637.229 136.948L644.339 135.888L653.366 136.163Z" fill="#F2F3F8"/>
<path d="M666.738 141.923C666.738 143.244 667.808 144.317 669.132 144.317C670.453 144.317 671.525 143.244 671.525 141.923C671.525 140.602 670.453 139.53 669.132 139.53C667.808 139.53 666.738 140.602 666.738 141.923Z" fill="#F2F3F8"/>
<path d="M665.228 136.16L665.207 131.613L671.864 131.679C672.704 131.688 673.511 132.06 674.147 132.737L677.957 136.779L672.355 135.792L665.228 136.16Z" fill="#F2F3F8"/>
<path d="M658.137 158.526C657.113 159.081 656.241 159.394 655.262 159.696C654.305 159.981 653.324 160.175 652.337 160.279C650.365 160.505 648.339 160.271 646.51 159.624C646.131 159.492 645.933 159.077 646.067 158.698C646.184 158.364 646.52 158.171 646.859 158.222L646.884 158.226C648.578 158.479 650.278 158.35 651.869 157.854C652.667 157.613 653.439 157.301 654.173 156.92C654.886 156.552 655.656 156.069 656.164 155.643C656.905 155.016 658.013 155.107 658.639 155.848C659.266 156.588 659.175 157.694 658.434 158.322C658.345 158.396 658.234 158.471 658.137 158.526Z" fill="#F2F3F8"/>
<path d="M663.655 155.794C664.061 156.192 664.716 156.662 665.316 157.018C665.94 157.386 666.599 157.692 667.284 157.928C668.654 158.413 670.139 158.541 671.618 158.277L671.644 158.273C672.014 158.207 672.367 158.454 672.431 158.824C672.488 159.147 672.307 159.458 672.014 159.573C670.395 160.219 668.552 160.439 666.78 160.185C665.891 160.068 665.016 159.858 664.168 159.562C663.302 159.249 662.538 158.93 661.644 158.373C660.87 157.898 660.63 156.883 661.106 156.109C661.583 155.337 662.595 155.094 663.37 155.573C663.47 155.635 663.572 155.715 663.655 155.794Z" fill="#F2F3F8"/>
<path d="M656.67 165.549C656.67 165.549 659.095 166.421 662.567 165.549H656.67Z" fill="#F2F3F8"/>
<path d="M799.468 226.116C804.074 249.148 816.354 300.614 822.588 326.463C824.67 335.105 819.581 343.847 811.037 346.313C801.976 348.928 792.558 343.483 790.301 334.327L765.383 233.266C763.235 223.471 769.783 213.889 779.693 212.334C788.916 210.885 797.638 216.961 799.468 226.116Z" fill="#142251"/>
<path d="M822.617 326.361L843.86 413.159L811.597 421.971L789.975 333.21C787.918 323.83 794.192 314.654 803.678 313.162C812.512 311.777 820.864 317.594 822.617 326.361Z" fill="#142251"/>
<path d="M756.542 197.895L739.75 198.135L723.404 197.895L691.068 212.685L695.064 341.903H784.882L785.338 212.345L756.542 197.895Z" fill="#142251"/>
<path d="M743.33 234.038C743.33 235.091 742.477 235.946 741.424 235.946C740.369 235.946 739.516 235.091 739.516 234.038C739.516 232.985 740.369 232.132 741.424 232.132C742.477 232.132 743.33 232.985 743.33 234.038Z" fill="#142251"/>
<path d="M743.33 256.631C743.33 257.686 742.477 258.539 741.424 258.539C740.369 258.539 739.516 257.686 739.516 256.631C739.516 255.578 740.369 254.725 741.424 254.725C742.477 254.725 743.33 255.578 743.33 256.631Z" fill="#142251"/>
<path d="M743.33 279.225C743.33 280.28 742.477 281.133 741.424 281.133C740.369 281.133 739.516 280.28 739.516 279.225C739.516 278.172 740.369 277.319 741.424 277.319C742.477 277.319 743.33 278.172 743.33 279.225Z" fill="#142251"/>
<path d="M743.33 301.816C743.33 302.872 742.477 303.725 741.424 303.725C740.369 303.725 739.516 302.872 739.516 301.816C739.516 300.763 740.369 299.91 741.424 299.91C742.477 299.91 743.33 300.763 743.33 301.816Z" fill="#142251"/>
<path d="M743.33 324.411C743.33 325.466 742.477 326.319 741.424 326.319C740.369 326.319 739.516 325.466 739.516 324.411C739.516 323.357 740.369 322.504 741.424 322.504C742.477 322.504 743.33 323.357 743.33 324.411Z" fill="#142251"/>
<path d="M678.392 226.116C673.786 249.148 661.506 300.614 655.275 326.463C653.19 335.105 658.281 343.847 666.823 346.313C675.884 348.928 685.303 343.483 687.562 334.327L712.477 233.266C714.626 223.471 708.077 213.889 698.17 212.334C688.947 210.885 680.224 216.961 678.392 226.116Z" fill="#142251"/>
<path d="M655.243 326.361L634 413.159L666.263 421.971L687.885 333.21C689.942 323.83 683.671 314.654 674.182 313.162C665.349 311.777 656.996 317.594 655.243 326.361Z" fill="#142251"/>
<path d="M788.773 391.027H694.151L695.064 341.903H784.546L788.773 391.027Z" fill="#142251"/>
<path d="M693.932 390.439L691.05 503.897C690.705 514.147 698.923 522.644 709.18 522.644C718.464 522.644 726.251 515.632 727.221 506.396L738.627 393.531C740.016 380.298 729.64 368.775 716.335 368.775C704.248 368.775 694.336 378.36 693.932 390.439Z" fill="#142251"/>
<path d="M788.612 390.439L793.533 503.897C793.878 514.147 785.659 522.644 775.405 522.644C766.118 522.644 758.332 515.632 757.362 506.396L743.918 393.531C742.529 380.298 752.904 368.775 766.21 368.775C778.296 368.775 788.208 378.36 788.612 390.439Z" fill="#142251"/>
<path d="M763.59 193.91H755.178L758.171 201.01L763.59 193.91Z" fill="#142251"/>
<path d="M742.649 218.309C732.933 218.309 725.055 210.431 725.055 200.715V163.271H760.243V200.715C760.243 210.431 752.365 218.309 742.649 218.309Z" fill="#142251"/>
<path d="M746.306 218.309L735.749 203.632C734.315 201.2 732.358 199.102 730.009 197.475L725.62 194.437C724.691 193.794 723.461 193.735 722.472 194.286L718.044 196.754C717.023 197.324 716.455 198.432 716.606 199.564L718.427 213.265C718.604 214.616 720.321 215.163 721.293 214.18L730.982 204.376C731.52 203.83 732.441 203.902 732.884 204.525L746.306 220.747V218.309Z" fill="#142251"/>
<path d="M746.307 218.317L762.942 194.438C763.405 193.778 763.427 193.736 764.237 194.287L767.854 196.752C768.69 197.323 769.154 198.431 769.03 199.565L769.581 213.264C769.435 214.617 768.033 215.164 767.237 214.179L760.161 204.426C759.72 203.879 758.967 203.954 758.606 204.575L746.307 220.755V218.317Z" fill="#142251"/>
<path d="M772.515 116.514C771.107 111.294 767.8 103.926 755.991 98.4307C736.482 89.3506 726.208 108.634 726.208 108.634C720.951 108.062 716.583 109.911 714.079 114.968C711.732 119.706 714.03 128.616 714.741 131.718L719.017 151.397L722.772 132.679C726.461 120.367 732.071 115.353 732.071 115.353L749.9 113.904L768.805 149.605L772.483 128.479C772.951 125.799 773.145 123.069 772.996 120.352C772.911 118.78 772.758 117.414 772.515 116.514Z" fill="#142251"/>
<path d="M765.517 145.283C765.517 145.283 767.895 141.502 772.802 143.363C777.705 145.223 775.489 157.136 768.129 158.652C768.129 158.652 765.491 159.229 763.424 157.424C763.424 157.424 765.233 148.623 765.517 145.283Z" fill="#142251"/>
<path d="M719.66 145.149C719.66 145.149 716.755 141.44 712.095 143.36C707.248 145.362 709.411 157.134 716.769 158.653C716.769 158.653 719.407 159.228 721.475 157.424C721.475 157.424 719.943 148.489 719.66 145.149Z" fill="#142251"/>
<path d="M713.072 147.565C713.072 147.565 717.18 146.191 720.098 152.246L713.072 147.565Z" fill="#142251"/>
<path d="M718.103 149.283C718.103 149.283 713.63 151.674 716.586 155.268L718.103 149.283Z" fill="#142251"/>
<path d="M770.087 133.979C770.089 141.159 769.383 156.186 764.968 165.104C760.824 173.476 753.967 177.984 744.978 178.252C735.992 178.52 729.294 175.055 723.929 164.187C718.561 153.322 718.818 134.113 718.818 134.113C718.818 134.113 718.818 108.458 744.174 108.458C770.88 108.458 770.087 133.979 770.087 133.979Z" fill="#142251"/>
<path d="M752.983 140.996V152.451C752.983 152.706 752.934 152.95 752.844 153.176C752.493 154.055 751.481 154.476 750.566 154.231L748.596 153.708" fill="#142251"/>
<path d="M741.951 141.922C741.951 143.243 740.881 144.315 739.558 144.315C738.237 144.315 737.164 143.243 737.164 141.922C737.164 140.601 738.237 139.529 739.558 139.529C740.881 139.529 741.951 140.601 741.951 141.922Z" fill="#142251"/>
<path d="M744.366 136.163L744.453 131.614L736.017 131.765C734.951 131.784 733.926 132.169 733.109 132.852L728.229 136.948L735.339 135.888L744.366 136.163Z" fill="#142251"/>
<path d="M757.738 141.923C757.738 143.244 758.808 144.317 760.132 144.317C761.453 144.317 762.525 143.244 762.525 141.923C762.525 140.602 761.453 139.53 760.132 139.53C758.808 139.53 757.738 140.602 757.738 141.923Z" fill="#142251"/>
<path d="M756.228 136.16L756.207 131.613L762.864 131.679C763.704 131.688 764.511 132.06 765.147 132.737L768.957 136.779L763.355 135.792L756.228 136.16Z" fill="#142251"/>
<path d="M749.137 158.526C748.113 159.081 747.241 159.394 746.262 159.696C745.305 159.981 744.324 160.175 743.337 160.279C741.365 160.505 739.339 160.271 737.51 159.624C737.131 159.492 736.933 159.077 737.067 158.698C737.184 158.364 737.52 158.171 737.859 158.222L737.884 158.226C739.578 158.479 741.278 158.35 742.869 157.854C743.667 157.613 744.439 157.301 745.173 156.92C745.886 156.552 746.656 156.069 747.164 155.643C747.905 155.016 749.013 155.107 749.639 155.848C750.266 156.588 750.175 157.694 749.434 158.322C749.345 158.396 749.234 158.471 749.137 158.526Z" fill="#142251"/>
<path d="M754.655 155.794C755.061 156.192 755.716 156.662 756.316 157.018C756.94 157.386 757.599 157.692 758.284 157.928C759.654 158.413 761.139 158.541 762.618 158.277L762.644 158.273C763.014 158.207 763.367 158.454 763.431 158.824C763.488 159.147 763.307 159.458 763.014 159.573C761.395 160.219 759.552 160.439 757.78 160.185C756.891 160.068 756.016 159.858 755.168 159.562C754.302 159.249 753.538 158.93 752.644 158.373C751.87 157.898 751.63 156.883 752.106 156.109C752.583 155.337 753.595 155.094 754.37 155.573C754.47 155.635 754.572 155.715 754.655 155.794Z" fill="#142251"/>
<path d="M747.67 165.549C747.67 165.549 750.095 166.421 753.567 165.549H747.67Z" fill="#142251"/>
<path d="M882.468 226.116C887.074 249.148 899.354 300.614 905.588 326.463C907.67 335.105 902.581 343.847 894.037 346.313C884.976 348.928 875.558 343.483 873.301 334.327L848.383 233.266C846.235 223.471 852.783 213.889 862.693 212.334C871.916 210.885 880.638 216.961 882.468 226.116Z" fill="#E4E7F1"/>
<path d="M905.617 326.361L926.86 413.159L894.597 421.971L872.975 333.21C870.918 323.83 877.192 314.654 886.678 313.162C895.512 311.777 903.864 317.594 905.617 326.361Z" fill="#E4E7F1"/>
<path d="M839.542 197.895L822.75 198.135L806.404 197.895L774.068 212.685L778.064 341.903H867.882L868.338 212.345L839.542 197.895Z" fill="#E4E7F1"/>
<path d="M826.33 234.038C826.33 235.091 825.477 235.946 824.424 235.946C823.369 235.946 822.516 235.091 822.516 234.038C822.516 232.985 823.369 232.132 824.424 232.132C825.477 232.132 826.33 232.985 826.33 234.038Z" fill="#E4E7F1"/>
<path d="M826.33 256.631C826.33 257.686 825.477 258.539 824.424 258.539C823.369 258.539 822.516 257.686 822.516 256.631C822.516 255.578 823.369 254.725 824.424 254.725C825.477 254.725 826.33 255.578 826.33 256.631Z" fill="#E4E7F1"/>
<path d="M826.33 279.225C826.33 280.28 825.477 281.133 824.424 281.133C823.369 281.133 822.516 280.28 822.516 279.225C822.516 278.172 823.369 277.319 824.424 277.319C825.477 277.319 826.33 278.172 826.33 279.225Z" fill="#E4E7F1"/>
<path d="M826.33 301.816C826.33 302.872 825.477 303.725 824.424 303.725C823.369 303.725 822.516 302.872 822.516 301.816C822.516 300.763 823.369 299.91 824.424 299.91C825.477 299.91 826.33 300.763 826.33 301.816Z" fill="#E4E7F1"/>
<path d="M826.33 324.411C826.33 325.466 825.477 326.319 824.424 326.319C823.369 326.319 822.516 325.466 822.516 324.411C822.516 323.357 823.369 322.504 824.424 322.504C825.477 322.504 826.33 323.357 826.33 324.411Z" fill="#E4E7F1"/>
<path d="M761.392 226.116C756.786 249.148 744.506 300.614 738.275 326.463C736.19 335.105 741.281 343.847 749.823 346.313C758.884 348.928 768.303 343.483 770.562 334.327L795.477 233.266C797.626 223.471 791.077 213.889 781.17 212.334C771.947 210.885 763.224 216.961 761.392 226.116Z" fill="#E4E7F1"/>
<path d="M738.243 326.361L717 413.159L749.263 421.971L770.885 333.21C772.942 323.83 766.671 314.654 757.182 313.162C748.349 311.777 739.996 317.594 738.243 326.361Z" fill="#E4E7F1"/>
<path d="M871.773 391.027H777.151L778.064 341.903H867.546L871.773 391.027Z" fill="#E4E7F1"/>
<path d="M776.932 390.439L774.05 503.897C773.705 514.147 781.923 522.644 792.18 522.644C801.464 522.644 809.251 515.632 810.221 506.396L821.627 393.531C823.016 380.298 812.64 368.775 799.335 368.775C787.248 368.775 777.336 378.36 776.932 390.439Z" fill="#E4E7F1"/>
<path d="M871.612 390.439L876.533 503.897C876.878 514.147 868.659 522.644 858.405 522.644C849.118 522.644 841.332 515.632 840.362 506.396L826.918 393.531C825.529 380.298 835.904 368.775 849.21 368.775C861.296 368.775 871.208 378.36 871.612 390.439Z" fill="#E4E7F1"/>
<path d="M846.59 193.91H838.178L841.171 201.01L846.59 193.91Z" fill="#E4E7F1"/>
<path d="M825.649 218.309C815.933 218.309 808.055 210.431 808.055 200.715V163.271H843.243V200.715C843.243 210.431 835.365 218.309 825.649 218.309Z" fill="#E4E7F1"/>
<path d="M829.306 218.309L818.749 203.632C817.315 201.2 815.358 199.102 813.009 197.475L808.62 194.437C807.691 193.794 806.461 193.735 805.472 194.286L801.044 196.754C800.023 197.324 799.455 198.432 799.606 199.564L801.427 213.265C801.604 214.616 803.321 215.163 804.293 214.18L813.982 204.376C814.52 203.83 815.441 203.902 815.884 204.525L829.306 220.747V218.309Z" fill="#E4E7F1"/>
<path d="M829.307 218.317L845.942 194.438C846.405 193.778 846.427 193.736 847.237 194.287L850.854 196.752C851.69 197.323 852.154 198.431 852.03 199.565L852.581 213.264C852.435 214.617 851.033 215.164 850.237 214.179L843.161 204.426C842.72 203.879 841.967 203.954 841.606 204.575L829.307 220.755V218.317Z" fill="#E4E7F1"/>
<path d="M855.515 116.514C854.107 111.294 850.8 103.926 838.991 98.4307C819.482 89.3506 809.208 108.634 809.208 108.634C803.951 108.062 799.583 109.911 797.079 114.968C794.732 119.706 797.03 128.616 797.741 131.718L802.017 151.397L805.772 132.679C809.461 120.367 815.071 115.353 815.071 115.353L832.9 113.904L851.805 149.605L855.483 128.479C855.951 125.799 856.145 123.069 855.996 120.352C855.911 118.78 855.758 117.414 855.515 116.514Z" fill="#E4E7F1"/>
<path d="M848.517 145.283C848.517 145.283 850.895 141.502 855.802 143.363C860.705 145.223 858.489 157.136 851.129 158.652C851.129 158.652 848.491 159.229 846.424 157.424C846.424 157.424 848.233 148.623 848.517 145.283Z" fill="#E4E7F1"/>
<path d="M802.66 145.149C802.66 145.149 799.755 141.44 795.095 143.36C790.248 145.362 792.411 157.134 799.769 158.653C799.769 158.653 802.407 159.228 804.475 157.424C804.475 157.424 802.943 148.489 802.66 145.149Z" fill="#E4E7F1"/>
<path d="M796.072 147.565C796.072 147.565 800.18 146.191 803.098 152.246L796.072 147.565Z" fill="#E4E7F1"/>
<path d="M801.103 149.283C801.103 149.283 796.63 151.674 799.586 155.268L801.103 149.283Z" fill="#E4E7F1"/>
<path d="M853.087 133.979C853.089 141.159 852.383 156.186 847.968 165.104C843.824 173.476 836.967 177.984 827.978 178.252C818.992 178.52 812.294 175.055 806.929 164.187C801.561 153.322 801.818 134.113 801.818 134.113C801.818 134.113 801.818 108.458 827.174 108.458C853.88 108.458 853.087 133.979 853.087 133.979Z" fill="#E4E7F1"/>
<path d="M835.983 140.996V152.451C835.983 152.706 835.934 152.95 835.844 153.176C835.493 154.055 834.481 154.476 833.566 154.231L831.596 153.708" fill="#E4E7F1"/>
<path d="M824.951 141.922C824.951 143.243 823.881 144.315 822.558 144.315C821.237 144.315 820.164 143.243 820.164 141.922C820.164 140.601 821.237 139.529 822.558 139.529C823.881 139.529 824.951 140.601 824.951 141.922Z" fill="#E4E7F1"/>
<path d="M827.366 136.163L827.453 131.614L819.017 131.765C817.951 131.784 816.926 132.169 816.109 132.852L811.229 136.948L818.339 135.888L827.366 136.163Z" fill="#E4E7F1"/>
<path d="M840.738 141.923C840.738 143.244 841.808 144.317 843.132 144.317C844.453 144.317 845.525 143.244 845.525 141.923C845.525 140.602 844.453 139.53 843.132 139.53C841.808 139.53 840.738 140.602 840.738 141.923Z" fill="#E4E7F1"/>
<path d="M839.228 136.16L839.207 131.613L845.864 131.679C846.704 131.688 847.511 132.06 848.147 132.737L851.957 136.779L846.355 135.792L839.228 136.16Z" fill="#E4E7F1"/>
<path d="M832.137 158.526C831.113 159.081 830.241 159.394 829.262 159.696C828.305 159.981 827.324 160.175 826.337 160.279C824.365 160.505 822.339 160.271 820.51 159.624C820.131 159.492 819.933 159.077 820.067 158.698C820.184 158.364 820.52 158.171 820.859 158.222L820.884 158.226C822.578 158.479 824.278 158.35 825.869 157.854C826.667 157.613 827.439 157.301 828.173 156.92C828.886 156.552 829.656 156.069 830.164 155.643C830.905 155.016 832.013 155.107 832.639 155.848C833.266 156.588 833.175 157.694 832.434 158.322C832.345 158.396 832.234 158.471 832.137 158.526Z" fill="#E4E7F1"/>
<path d="M837.655 155.794C838.061 156.192 838.716 156.662 839.316 157.018C839.94 157.386 840.599 157.692 841.284 157.928C842.654 158.413 844.139 158.541 845.618 158.277L845.644 158.273C846.014 158.207 846.367 158.454 846.431 158.824C846.488 159.147 846.307 159.458 846.014 159.573C844.395 160.219 842.552 160.439 840.78 160.185C839.891 160.068 839.016 159.858 838.168 159.562C837.302 159.249 836.538 158.93 835.644 158.373C834.87 157.898 834.63 156.883 835.106 156.109C835.583 155.337 836.595 155.094 837.37 155.573C837.47 155.635 837.572 155.715 837.655 155.794Z" fill="#E4E7F1"/>
<path d="M830.67 165.549C830.67 165.549 833.095 166.421 836.567 165.549H830.67Z" fill="#E4E7F1"/>
<path d="M632.04 338.519L629.496 337.744L629.81 336.717L632.353 337.493C632.846 337.643 633.268 337.686 633.621 337.622C633.974 337.559 634.263 337.408 634.488 337.172C634.717 336.937 634.886 336.641 634.995 336.283C635.094 335.956 635.116 335.627 635.06 335.295C635.008 334.965 634.857 334.666 634.605 334.399C634.354 334.127 633.982 333.916 633.49 333.766L631.241 333.08L628.652 341.567L627.39 341.182L630.294 331.662L633.805 332.733C634.524 332.952 635.094 333.262 635.516 333.662C635.937 334.062 636.209 334.521 636.332 335.04C636.456 335.554 636.432 336.093 636.261 336.655C636.075 337.265 635.787 337.747 635.398 338.1C635.009 338.453 634.532 338.667 633.966 338.742C633.401 338.813 632.759 338.739 632.04 338.519ZM636.298 340.118L636.344 339.968C636.499 339.458 636.718 339.008 636.999 338.617C637.281 338.222 637.611 337.906 637.989 337.668C638.367 337.426 638.782 337.277 639.233 337.219C639.686 337.157 640.158 337.201 640.651 337.351C641.148 337.503 641.567 337.73 641.908 338.035C642.254 338.336 642.517 338.692 642.696 339.104C642.881 339.513 642.981 339.96 642.995 340.446C643.01 340.927 642.94 341.422 642.784 341.932L642.738 342.083C642.583 342.593 642.364 343.043 642.083 343.434C641.802 343.825 641.47 344.14 641.087 344.381C640.709 344.618 640.294 344.768 639.842 344.83C639.395 344.889 638.923 344.843 638.426 344.691C637.929 344.54 637.51 344.314 637.168 344.014C636.827 343.71 636.564 343.354 636.379 342.945C636.2 342.533 636.103 342.086 636.087 341.605C636.072 341.124 636.142 340.628 636.298 340.118ZM637.553 340.337L637.507 340.487C637.4 340.84 637.339 341.186 637.326 341.526C637.315 341.86 637.355 342.173 637.448 342.463C637.545 342.755 637.698 343.009 637.909 343.225C638.12 343.438 638.394 343.595 638.729 343.697C639.061 343.798 639.371 343.819 639.661 343.76C639.956 343.698 640.223 343.572 640.462 343.383C640.701 343.193 640.909 342.957 641.086 342.672C641.269 342.385 641.414 342.065 641.522 341.712L641.568 341.562C641.674 341.213 641.731 340.87 641.738 340.534C641.751 340.195 641.709 339.88 641.612 339.588C641.521 339.294 641.37 339.038 641.16 338.821C640.954 338.606 640.683 338.447 640.348 338.345C640.017 338.244 639.703 338.224 639.408 338.287C639.117 338.351 638.849 338.479 638.605 338.671C638.366 338.86 638.157 339.099 637.979 339.387C637.801 339.672 637.66 339.988 637.553 340.337ZM647.578 336.362L644.514 346.405L643.298 346.034L646.362 335.991L647.578 336.362ZM650.997 347.061L652.108 343.419C652.193 343.14 652.21 342.88 652.159 342.641C652.114 342.398 651.997 342.187 651.81 342.005C651.622 341.824 651.365 341.684 651.038 341.584C650.733 341.491 650.449 341.462 650.186 341.496C649.927 341.531 649.706 341.614 649.524 341.744C649.346 341.876 649.227 342.039 649.167 342.236L647.957 341.867C648.034 341.614 648.176 341.383 648.383 341.175C648.589 340.966 648.845 340.799 649.15 340.673C649.461 340.543 649.807 340.473 650.187 340.46C650.573 340.444 650.98 340.502 651.407 340.632C651.921 340.789 652.348 341.014 652.687 341.308C653.031 341.604 653.26 341.962 653.374 342.383C653.495 342.801 653.474 343.273 653.313 343.801L652.308 347.096C652.236 347.331 652.179 347.588 652.138 347.866C652.1 348.145 652.094 348.393 652.118 348.61L652.086 348.715L650.824 348.33C650.805 348.172 650.814 347.972 650.85 347.73C650.887 347.484 650.936 347.261 650.997 347.061ZM652.145 344.045L651.899 344.899L650.677 344.526C650.332 344.421 650.016 344.355 649.729 344.33C649.442 344.299 649.191 344.311 648.975 344.364C648.759 344.417 648.577 344.512 648.431 344.648C648.286 344.78 648.18 344.955 648.113 345.173C648.046 345.396 648.034 345.614 648.078 345.827C648.123 346.041 648.229 346.233 648.396 346.403C648.569 346.57 648.803 346.699 649.1 346.789C649.47 346.902 649.821 346.923 650.152 346.853C650.484 346.782 650.767 346.659 651.001 346.483C651.241 346.308 651.399 346.116 651.477 345.906L651.817 346.646C651.73 346.82 651.586 346.997 651.383 347.178C651.18 347.359 650.934 347.518 650.644 347.653C650.361 347.786 650.044 347.873 649.693 347.914C649.348 347.951 648.984 347.912 648.6 347.795C648.121 347.648 647.729 347.426 647.424 347.129C647.124 346.832 646.921 346.496 646.816 346.121C646.717 345.743 646.728 345.358 646.847 344.966C646.963 344.587 647.139 344.276 647.375 344.033C647.612 343.786 647.899 343.61 648.237 343.503C648.576 343.392 648.957 343.346 649.38 343.365C649.802 343.385 650.256 343.468 650.74 343.616L652.145 344.045ZM656.769 343.625L654.95 349.588L653.74 349.219L655.898 342.145L657.075 342.504L656.769 343.625ZM659.33 343.149L658.98 344.271C658.887 344.219 658.795 344.177 658.704 344.144C658.62 344.109 658.521 344.074 658.408 344.04C658.129 343.954 657.869 343.923 657.629 343.945C657.389 343.967 657.171 344.034 656.975 344.146C656.778 344.257 656.604 344.409 656.45 344.6C656.302 344.788 656.176 345.007 656.071 345.256L655.671 345.349C655.802 344.922 655.965 344.533 656.162 344.184C656.364 343.835 656.598 343.545 656.864 343.311C657.132 343.074 657.428 342.916 657.752 342.839C658.081 342.758 658.438 342.777 658.822 342.894C658.909 342.92 659.006 342.962 659.112 343.018C659.22 343.07 659.293 343.114 659.33 343.149ZM658.882 347.007L658.928 346.857C659.083 346.347 659.302 345.896 659.583 345.506C659.865 345.111 660.195 344.794 660.573 344.557C660.951 344.315 661.366 344.165 661.817 344.108C662.27 344.046 662.742 344.09 663.235 344.24C663.732 344.391 664.151 344.619 664.492 344.923C664.838 345.224 665.101 345.581 665.28 345.993C665.465 346.402 665.565 346.849 665.579 347.335C665.594 347.816 665.524 348.311 665.368 348.821L665.322 348.972C665.167 349.482 664.948 349.932 664.667 350.323C664.386 350.713 664.054 351.029 663.671 351.27C663.293 351.507 662.878 351.657 662.426 351.719C661.979 351.778 661.507 351.732 661.01 351.58C660.513 351.428 660.094 351.203 659.752 350.903C659.411 350.599 659.148 350.243 658.963 349.834C658.784 349.421 658.687 348.975 658.671 348.494C658.656 348.013 658.726 347.517 658.882 347.007ZM660.137 347.226L660.091 347.376C659.984 347.729 659.923 348.075 659.91 348.414C659.899 348.749 659.939 349.062 660.032 349.352C660.129 349.644 660.282 349.898 660.493 350.114C660.704 350.327 660.978 350.484 661.313 350.586C661.645 350.687 661.955 350.708 662.245 350.649C662.54 350.586 662.807 350.461 663.046 350.271C663.285 350.082 663.493 349.845 663.67 349.561C663.853 349.274 663.998 348.954 664.106 348.601L664.152 348.45C664.258 348.102 664.315 347.759 664.322 347.423C664.335 347.084 664.293 346.769 664.196 346.477C664.105 346.182 663.954 345.927 663.744 345.71C663.538 345.495 663.268 345.336 662.932 345.234C662.601 345.133 662.287 345.113 661.992 345.176C661.701 345.239 661.433 345.367 661.189 345.56C660.95 345.749 660.741 345.988 660.563 346.276C660.385 346.561 660.244 346.877 660.137 347.226ZM669.256 346.219L667.098 353.294L665.882 352.923L668.04 345.849L669.256 346.219ZM668.521 343.944C668.581 343.748 668.69 343.6 668.849 343.501C669.012 343.403 669.212 343.39 669.447 343.462C669.678 343.532 669.834 343.654 669.915 343.826C670 344 670.013 344.185 669.953 344.381C669.896 344.568 669.783 344.71 669.616 344.807C669.454 344.9 669.257 344.912 669.026 344.841C668.791 344.77 668.632 344.65 668.55 344.482C668.474 344.311 668.464 344.131 668.521 343.944ZM673.918 353.874L676.563 345.204L677.779 345.575L674.716 355.618L673.604 355.279L673.918 353.874ZM669.795 350.336L669.836 350.199C670.001 349.658 670.216 349.188 670.481 348.787C670.752 348.384 671.058 348.06 671.399 347.817C671.745 347.574 672.113 347.42 672.505 347.353C672.903 347.284 673.313 347.314 673.736 347.443C674.181 347.579 674.545 347.775 674.828 348.033C675.117 348.288 675.332 348.599 675.473 348.966C675.619 349.33 675.696 349.74 675.705 350.195C675.714 350.65 675.665 351.147 675.558 351.686L675.374 352.288C675.168 352.792 674.932 353.23 674.666 353.601C674.405 353.974 674.112 354.271 673.787 354.491C673.467 354.713 673.115 354.851 672.732 354.905C672.35 354.955 671.934 354.912 671.485 354.775C671.071 354.649 670.719 354.444 670.429 354.16C670.144 353.878 669.926 353.537 669.776 353.139C669.63 352.742 669.556 352.305 669.554 351.828C669.557 351.347 669.638 350.85 669.795 350.336ZM671.053 350.57L671.011 350.707C670.903 351.06 670.837 351.402 670.812 351.733C670.792 352.065 670.822 352.372 670.903 352.654C670.984 352.936 671.121 353.18 671.315 353.387C671.511 353.589 671.772 353.741 672.099 353.84C672.5 353.963 672.855 353.978 673.164 353.887C673.477 353.796 673.755 353.636 673.997 353.405C674.239 353.173 674.454 352.908 674.641 352.607L675.121 351.032C675.142 350.776 675.136 350.522 675.104 350.269C675.077 350.013 675.012 349.774 674.908 349.551C674.81 349.326 674.664 349.127 674.469 348.953C674.278 348.781 674.031 348.648 673.726 348.555C673.394 348.454 673.087 348.436 672.805 348.503C672.529 348.566 672.277 348.694 672.052 348.887C671.827 349.076 671.63 349.316 671.46 349.608C671.296 349.896 671.16 350.216 671.053 350.57ZM687.34 349.048L687.444 349.08L687.131 350.107L687.027 350.075C686.386 349.879 685.818 349.82 685.323 349.898C684.828 349.971 684.402 350.144 684.043 350.415C683.685 350.683 683.383 351.015 683.138 351.412C682.898 351.81 682.71 352.231 682.574 352.676L682.147 354.075C682.018 354.498 681.954 354.888 681.955 355.246C681.956 355.599 682.011 355.913 682.117 356.189C682.224 356.464 682.369 356.692 682.552 356.872C682.74 357.053 682.954 357.18 683.193 357.253C683.472 357.338 683.737 357.362 683.987 357.324C684.238 357.281 684.467 357.186 684.673 357.04C684.886 356.89 685.072 356.694 685.231 356.453C685.391 356.211 685.519 355.93 685.616 355.612C685.703 355.329 685.751 355.046 685.761 354.763C685.772 354.476 685.737 354.208 685.656 353.959C685.576 353.706 685.445 353.487 685.263 353.303C685.087 353.116 684.85 352.977 684.554 352.887C684.218 352.784 683.879 352.771 683.536 352.848C683.2 352.922 682.897 353.063 682.628 353.271C682.365 353.477 682.174 353.731 682.053 354.032L681.414 353.83C681.624 353.361 681.865 352.979 682.135 352.685C682.412 352.388 682.707 352.169 683.022 352.027C683.343 351.881 683.673 351.806 684.013 351.8C684.359 351.791 684.706 351.84 685.055 351.946C685.53 352.091 685.913 352.306 686.203 352.589C686.492 352.873 686.703 353.199 686.833 353.568C686.965 353.932 687.026 354.318 687.016 354.724C687.012 355.128 686.951 355.526 686.831 355.918C686.694 356.367 686.502 356.769 686.256 357.122C686.01 357.476 685.716 357.763 685.372 357.982C685.033 358.203 684.656 358.34 684.239 358.394C683.822 358.448 683.372 358.401 682.888 358.253C682.374 358.097 681.957 357.855 681.637 357.529C681.319 357.198 681.087 356.818 680.942 356.388C680.797 355.957 680.727 355.507 680.732 355.037C680.737 354.567 680.807 354.11 680.943 353.665L681.117 353.096C681.321 352.425 681.59 351.787 681.922 351.183C682.254 350.579 682.665 350.067 683.156 349.644C683.651 349.224 684.242 348.949 684.929 348.82C685.617 348.692 686.42 348.768 687.34 349.048ZM694.982 355.767L694.539 357.219C694.301 357.999 694.03 358.636 693.727 359.13C693.424 359.623 693.092 359.994 692.731 360.241C692.369 360.488 691.981 360.629 691.565 360.664C691.155 360.697 690.719 360.642 690.257 360.501C689.891 360.39 689.567 360.241 689.286 360.055C689.004 359.869 688.77 359.638 688.582 359.361C688.401 359.082 688.272 358.752 688.198 358.372C688.123 357.992 688.111 357.555 688.162 357.061C688.213 356.566 688.333 356.007 688.523 355.384L688.966 353.932C689.204 353.152 689.473 352.52 689.774 352.035C690.078 351.551 690.41 351.19 690.769 350.952C691.129 350.709 691.513 350.574 691.922 350.546C692.335 350.519 692.77 350.576 693.228 350.716C693.598 350.829 693.924 350.978 694.206 351.164C694.493 351.347 694.729 351.574 694.913 351.844C695.099 352.111 695.227 352.431 695.299 352.805C695.376 353.177 695.39 353.607 695.341 354.097C695.291 354.587 695.172 355.144 694.982 355.767ZM693.263 357.044L693.827 355.194C693.957 354.767 694.046 354.384 694.092 354.045C694.144 353.704 694.157 353.403 694.131 353.142C694.106 352.882 694.041 352.657 693.937 352.468C693.837 352.281 693.701 352.125 693.529 352.001C693.363 351.874 693.162 351.775 692.927 351.703C692.639 351.615 692.367 351.592 692.112 351.633C691.857 351.67 691.619 351.78 691.396 351.965C691.177 352.151 690.971 352.419 690.779 352.77C690.586 353.121 690.408 353.565 690.244 354.101L689.68 355.951C689.549 356.378 689.458 356.763 689.407 357.104C689.359 357.447 689.349 357.754 689.376 358.024C689.405 358.29 689.467 358.521 689.565 358.718C689.662 358.914 689.793 359.078 689.958 359.209C690.128 359.338 690.329 359.437 690.56 359.507C690.857 359.598 691.133 359.62 691.39 359.575C691.647 359.529 691.886 359.409 692.108 359.215C692.335 359.017 692.543 358.74 692.733 358.383C692.924 358.022 693.101 357.576 693.263 357.044ZM702.514 358.065L702.071 359.517C701.833 360.297 701.563 360.934 701.26 361.427C700.957 361.921 700.624 362.291 700.263 362.538C699.902 362.786 699.513 362.927 699.098 362.962C698.688 362.994 698.252 362.94 697.789 362.799C697.423 362.687 697.099 362.538 696.818 362.352C696.536 362.166 696.302 361.935 696.115 361.659C695.933 361.38 695.805 361.05 695.73 360.67C695.656 360.29 695.644 359.853 695.694 359.358C695.745 358.864 695.866 358.305 696.056 357.682L696.498 356.23C696.736 355.45 697.006 354.817 697.306 354.332C697.611 353.849 697.942 353.488 698.301 353.249C698.661 353.007 699.045 352.871 699.454 352.843C699.867 352.817 700.302 352.874 700.76 353.013C701.131 353.126 701.457 353.276 701.738 353.462C702.025 353.645 702.261 353.871 702.446 354.142C702.631 354.408 702.76 354.729 702.831 355.103C702.909 355.474 702.923 355.905 702.873 356.395C702.824 356.885 702.704 357.442 702.514 358.065ZM700.795 359.342L701.36 357.491C701.49 357.064 701.578 356.681 701.624 356.343C701.676 356.001 701.689 355.7 701.664 355.44C701.638 355.18 701.573 354.955 701.469 354.766C701.369 354.578 701.233 354.422 701.061 354.299C700.895 354.172 700.694 354.072 700.459 354.001C700.171 353.913 699.9 353.889 699.644 353.931C699.39 353.967 699.151 354.078 698.928 354.263C698.71 354.448 698.504 354.717 698.311 355.068C698.118 355.419 697.94 355.862 697.776 356.398L697.212 358.249C697.082 358.676 696.991 359.06 696.939 359.402C696.891 359.745 696.881 360.051 696.908 360.322C696.937 360.588 697 360.819 697.097 361.015C697.194 361.212 697.325 361.376 697.49 361.507C697.661 361.635 697.862 361.734 698.093 361.805C698.389 361.895 698.666 361.918 698.923 361.872C699.179 361.827 699.419 361.707 699.64 361.512C699.867 361.315 700.075 361.038 700.265 360.681C700.456 360.32 700.633 359.874 700.795 359.342ZM710.188 356.032L707.284 365.552L706.022 365.167L708.926 355.647L710.188 356.032ZM712.87 361.531L712.555 362.564L708.292 361.264L708.607 360.231L712.87 361.531ZM714.824 357.446L714.509 358.479L709.598 356.981L709.913 355.948L714.824 357.446ZM713.832 363.768L713.877 363.618C714.033 363.108 714.251 362.658 714.532 362.267C714.815 361.872 715.145 361.556 715.522 361.318C715.901 361.076 716.316 360.927 716.767 360.869C717.22 360.807 717.692 360.851 718.185 361.001C718.682 361.153 719.101 361.381 719.441 361.685C719.788 361.986 720.051 362.342 720.23 362.754C720.415 363.163 720.514 363.61 720.528 364.096C720.544 364.577 720.473 365.073 720.318 365.583L720.272 365.733C720.116 366.243 719.898 366.693 719.617 367.084C719.336 367.475 719.004 367.79 718.62 368.031C718.243 368.268 717.828 368.418 717.376 368.48C716.929 368.539 716.457 368.493 715.96 368.341C715.463 368.19 715.044 367.964 714.701 367.664C714.361 367.36 714.098 367.004 713.913 366.595C713.734 366.183 713.636 365.736 713.621 365.255C713.606 364.774 713.676 364.278 713.832 363.768ZM715.087 363.987L715.041 364.137C714.933 364.491 714.873 364.837 714.86 365.176C714.849 365.51 714.889 365.823 714.982 366.113C715.078 366.405 715.232 366.659 715.442 366.876C715.654 367.088 715.928 367.245 716.263 367.348C716.594 367.449 716.905 367.469 717.195 367.41C717.49 367.348 717.757 367.222 717.996 367.033C718.235 366.844 718.443 366.607 718.62 366.323C718.803 366.035 718.948 365.715 719.056 365.362L719.102 365.212C719.208 364.863 719.265 364.521 719.272 364.184C719.285 363.845 719.243 363.53 719.146 363.238C719.055 362.944 718.904 362.688 718.694 362.472C718.488 362.256 718.217 362.097 717.882 361.995C717.55 361.894 717.237 361.875 716.942 361.937C716.651 362.001 716.383 362.129 716.138 362.321C715.9 362.51 715.691 362.749 715.512 363.038C715.335 363.322 715.193 363.638 715.087 363.987ZM723.762 364.06L721.943 370.024L720.734 369.655L722.892 362.58L724.069 362.939L723.762 364.06ZM726.323 363.584L725.974 364.706C725.88 364.654 725.788 364.612 725.698 364.579C725.614 364.544 725.515 364.509 725.401 364.475C725.122 364.39 724.863 364.358 724.623 364.38C724.382 364.402 724.164 364.469 723.968 364.581C723.772 364.692 723.597 364.844 723.444 365.035C723.296 365.224 723.169 365.442 723.065 365.692L722.665 365.784C722.795 365.357 722.959 364.968 723.156 364.619C723.358 364.271 723.592 363.98 723.858 363.747C724.126 363.509 724.422 363.352 724.746 363.274C725.075 363.193 725.432 363.212 725.815 363.329C725.902 363.355 725.999 363.397 726.106 363.453C726.214 363.505 726.286 363.549 726.323 363.584ZM728.204 365.737L726.475 371.406L725.258 371.035L727.416 363.96L728.567 364.311L728.204 365.737ZM727.387 367.525L726.831 367.333C726.983 366.851 727.182 366.423 727.429 366.051C727.677 365.674 727.968 365.37 728.301 365.138C728.634 364.906 729.004 364.761 729.412 364.705C729.821 364.644 730.261 364.685 730.732 364.829C731.063 364.93 731.354 365.071 731.604 365.252C731.855 365.428 732.052 365.648 732.196 365.911C732.34 366.174 732.42 366.48 732.438 366.828C732.455 367.177 732.396 367.573 732.261 368.018L730.823 372.732L729.613 372.363L731.033 367.708C731.146 367.337 731.173 367.021 731.115 366.761C731.061 366.501 730.935 366.287 730.739 366.117C730.545 365.943 730.295 365.81 729.989 365.717C729.632 365.608 729.314 365.58 729.036 365.633C728.758 365.687 728.513 365.802 728.301 365.981C728.089 366.159 727.907 366.382 727.754 366.65C727.606 366.915 727.484 367.206 727.387 367.525ZM732.174 368.256L731.287 368.257C731.41 367.87 731.587 367.517 731.818 367.197C732.053 366.878 732.331 366.615 732.652 366.408C732.977 366.202 733.338 366.071 733.736 366.016C734.135 365.957 734.559 365.996 735.008 366.133C735.388 366.249 735.708 366.401 735.969 366.59C736.235 366.781 736.436 367.012 736.573 367.282C736.716 367.549 736.79 367.86 736.796 368.215C736.802 368.569 736.738 368.969 736.602 369.413L735.184 374.062L733.968 373.691L735.39 369.029C735.511 368.633 735.541 368.306 735.481 368.05C735.427 367.79 735.3 367.582 735.1 367.426C734.906 367.266 734.654 367.14 734.344 367.045C734.078 366.964 733.829 366.938 733.596 366.967C733.363 366.996 733.153 367.07 732.964 367.189C732.777 367.303 732.615 367.451 732.478 367.634C732.346 367.817 732.244 368.025 732.174 368.256ZM741.555 374.684L742.666 371.042C742.751 370.763 742.768 370.503 742.718 370.264C742.672 370.022 742.556 369.81 742.368 369.629C742.18 369.447 741.923 369.307 741.596 369.207C741.291 369.114 741.007 369.085 740.744 369.119C740.486 369.154 740.265 369.237 740.082 369.367C739.904 369.499 739.785 369.663 739.725 369.859L738.516 369.49C738.593 369.237 738.734 369.006 738.941 368.798C739.148 368.589 739.404 368.422 739.709 368.296C740.02 368.167 740.365 368.096 740.746 368.083C741.132 368.067 741.538 368.125 741.965 368.255C742.48 368.412 742.906 368.637 743.246 368.931C743.589 369.227 743.818 369.585 743.933 370.006C744.053 370.424 744.033 370.896 743.872 371.424L742.867 374.719C742.795 374.955 742.738 375.211 742.696 375.489C742.659 375.768 742.652 376.016 742.676 376.233L742.644 376.338L741.382 375.953C741.364 375.795 741.373 375.595 741.408 375.353C741.445 375.107 741.494 374.884 741.555 374.684ZM742.704 371.668L742.458 372.522L741.235 372.149C740.891 372.044 740.575 371.978 740.287 371.953C740.001 371.922 739.75 371.934 739.533 371.987C739.317 372.04 739.136 372.135 738.989 372.271C738.844 372.403 738.738 372.578 738.672 372.796C738.604 373.019 738.592 373.237 738.637 373.45C738.681 373.664 738.787 373.856 738.954 374.026C739.127 374.193 739.362 374.322 739.658 374.412C740.029 374.525 740.38 374.547 740.711 374.476C741.042 374.406 741.325 374.282 741.56 374.106C741.799 373.931 741.958 373.739 742.036 373.529L742.375 374.269C742.289 374.443 742.144 374.62 741.941 374.801C741.738 374.982 741.492 375.141 741.203 375.277C740.919 375.409 740.602 375.496 740.252 375.537C739.907 375.574 739.542 375.535 739.159 375.418C738.679 375.271 738.287 375.049 737.983 374.752C737.682 374.455 737.48 374.119 737.375 373.744C737.276 373.366 737.286 372.981 737.406 372.589C737.521 372.21 737.697 371.899 737.933 371.656C738.171 371.409 738.458 371.233 738.795 371.126C739.134 371.015 739.515 370.969 739.938 370.988C740.361 371.008 740.814 371.091 741.298 371.239L742.704 371.668ZM749.419 370.671L749.135 371.6L745.31 370.433L745.594 369.505L749.419 370.671ZM747.413 368.18L748.622 368.549L746.474 375.591C746.401 375.831 746.383 376.023 746.42 376.167C746.457 376.312 746.528 376.422 746.634 376.497C746.74 376.572 746.86 376.63 746.995 376.672C747.095 376.702 747.203 376.725 747.317 376.741C747.437 376.754 747.527 376.763 747.588 376.767L747.293 377.756C747.188 377.757 747.053 377.747 746.888 377.725C746.726 377.709 746.536 377.668 746.318 377.602C746.022 377.511 745.767 377.369 745.555 377.176C745.342 376.982 745.204 376.726 745.139 376.406C745.081 376.083 745.123 375.686 745.267 375.215L747.413 368.18Z" fill="#142251"/>
<rect x="639.52" y="26.652" width="283.602" height="277.116" rx="11.5" transform="rotate(16.9633 639.52 26.652)" stroke="#989EB1"/>
</g>
<g filter="url(#filter0_i_10217_67)">
<rect x="1471" y="101" width="248" height="104" rx="52" fill="white"/>
<rect width="32" height="32" transform="translate(1507 137)" fill="white"/>
<g filter="url(#filter1_i_10217_67)">
<path d="M1523.33 140C1523.84 140 1524.3 140.285 1524.53 140.737L1527.96 147.614L1535.53 148.714C1536.03 148.787 1536.44 149.139 1536.6 149.621C1536.76 150.104 1536.63 150.634 1536.26 150.988L1530.76 156.353L1532 163.918C1532.08 164.418 1531.87 164.921 1531.46 165.217C1531.05 165.512 1530.51 165.549 1530.06 165.311L1523.33 161.743L1516.61 165.311C1516.16 165.549 1515.62 165.512 1515.21 165.217C1514.79 164.921 1514.59 164.418 1514.67 163.918L1515.91 156.353L1510.4 150.988C1510.04 150.634 1509.91 150.104 1510.07 149.621C1510.22 149.139 1510.64 148.787 1511.14 148.714L1518.7 147.614L1522.14 140.737C1522.37 140.285 1522.83 140 1523.33 140ZM1523.33 159.667L1520.6 152.311C1520.41 152.701 1520.21 150.09 1519.78 150.153L1526.6 154.811L1518.26 154.929C1518.58 155.232 1518.17 152.882 1518.1 153.311L1522.83 154.555L1524.79 154.837C1525.18 154.629 1523.57 158.848 1523.96 159.056L1528.93 161.695L1526.1 160.811C1526.03 160.382 1523.29 160.197 1523.6 159.893L1532.47 150.964L1522.83 160.667C1522.4 160.604 1524.3 155.701 1524.1 155.311L1523.33 159.667Z" fill="#142251"/>
</g>
<rect width="32" height="32" transform="translate(1543 137)" fill="white"/>
<g filter="url(#filter2_i_10217_67)">
<path d="M1559.33 140C1559.84 140 1560.3 140.285 1560.53 140.737L1563.96 147.614L1571.53 148.714C1572.03 148.787 1572.44 149.139 1572.6 149.621C1572.76 150.104 1572.63 150.634 1572.26 150.988L1566.76 156.353L1568 163.918C1568.08 164.418 1567.87 164.921 1567.46 165.217C1567.05 165.512 1566.51 165.549 1566.06 165.311L1559.33 161.743L1552.61 165.311C1552.16 165.549 1551.62 165.512 1551.21 165.217C1550.79 164.921 1550.59 164.418 1550.67 163.918L1551.91 156.353L1546.4 150.988C1546.04 150.634 1545.91 150.104 1546.07 149.621C1546.22 149.139 1546.64 148.787 1547.14 148.714L1554.7 147.614L1558.14 140.737C1558.37 140.285 1558.83 140 1559.33 140ZM1559.33 159.667L1556.6 152.311C1556.41 152.701 1556.21 150.09 1555.78 150.153L1562.6 154.811L1554.26 154.929C1554.58 155.232 1554.17 152.882 1554.1 153.311L1558.83 154.555L1560.79 154.837C1561.18 154.629 1559.57 158.848 1559.96 159.056L1564.93 161.695L1562.1 160.811C1562.03 160.382 1559.29 160.197 1559.6 159.893L1568.47 150.964L1558.83 160.667C1558.4 160.604 1560.3 155.701 1560.1 155.311L1559.33 159.667Z" fill="#142251"/>
</g>
<rect width="32" height="32" transform="translate(1579 137)" fill="white"/>
<g filter="url(#filter3_i_10217_67)">
<path d="M1595.33 140C1595.84 140 1596.3 140.285 1596.53 140.737L1599.96 147.614L1607.53 148.714C1608.03 148.787 1608.44 149.139 1608.6 149.621C1608.76 150.104 1608.63 150.634 1608.26 150.988L1602.76 156.353L1604 163.918C1604.08 164.418 1603.87 164.921 1603.46 165.217C1603.05 165.512 1602.51 165.549 1602.06 165.311L1595.33 161.743L1588.61 165.311C1588.16 165.549 1587.62 165.512 1587.21 165.217C1586.79 164.921 1586.59 164.418 1586.67 163.918L1587.91 156.353L1582.4 150.988C1582.04 150.634 1581.91 150.104 1582.07 149.621C1582.22 149.139 1582.64 148.787 1583.14 148.714L1590.7 147.614L1594.14 140.737C1594.37 140.285 1594.83 140 1595.33 140ZM1595.33 159.667L1592.6 152.311C1592.41 152.701 1592.21 150.09 1591.78 150.153L1598.6 154.811L1590.26 154.929C1590.58 155.232 1590.17 152.882 1590.1 153.311L1594.83 154.555L1596.79 154.837C1597.18 154.629 1595.57 158.848 1595.96 159.056L1600.93 161.695L1598.1 160.811C1598.03 160.382 1595.29 160.197 1595.6 159.893L1604.47 150.964L1594.83 160.667C1594.4 160.604 1596.3 155.701 1596.1 155.311L1595.33 159.667Z" fill="#142251"/>
</g>
<rect width="32" height="32" transform="translate(1615 137)" fill="white"/>
<g filter="url(#filter4_i_10217_67)">
<path d="M1631.33 140C1631.84 140 1632.3 140.285 1632.53 140.737L1635.96 147.614L1643.53 148.714C1644.03 148.787 1644.44 149.139 1644.6 149.621C1644.76 150.104 1644.63 150.634 1644.26 150.988L1638.76 156.353L1640 163.918C1640.08 164.418 1639.87 164.921 1639.46 165.217C1639.05 165.512 1638.51 165.549 1638.06 165.311L1631.33 161.743L1624.61 165.311C1624.16 165.549 1623.62 165.512 1623.21 165.217C1622.79 164.921 1622.59 164.418 1622.67 163.918L1623.91 156.353L1618.4 150.988C1618.04 150.634 1617.91 150.104 1618.07 149.621C1618.22 149.139 1618.64 148.787 1619.14 148.714L1626.7 147.614L1630.14 140.737C1630.37 140.285 1630.83 140 1631.33 140ZM1631.33 159.667L1628.6 152.311C1628.41 152.701 1628.21 150.09 1627.78 150.153L1634.6 154.811L1626.26 154.929C1626.58 155.232 1626.17 152.882 1626.1 153.311L1630.83 154.555L1632.79 154.837C1633.18 154.629 1631.57 158.848 1631.96 159.056L1636.93 161.695L1634.1 160.811C1634.03 160.382 1631.29 160.197 1631.6 159.893L1640.47 150.964L1630.83 160.667C1630.4 160.604 1632.3 155.701 1632.1 155.311L1631.33 159.667Z" fill="#142251"/>
</g>
<rect width="32" height="32" transform="translate(1651 137)" fill="white"/>
<g filter="url(#filter5_i_10217_67)">
<path d="M1667.33 140C1667.84 140 1668.3 140.285 1668.53 140.737L1671.96 147.614L1679.53 148.714C1680.03 148.787 1680.44 149.139 1680.6 149.621C1680.76 150.104 1680.63 150.634 1680.26 150.988L1674.76 156.353L1676 163.918C1676.08 164.418 1675.87 164.921 1675.46 165.217C1675.05 165.512 1674.51 165.549 1674.06 165.311L1667.33 161.743L1660.61 165.311C1660.16 165.549 1659.62 165.512 1659.21 165.217C1658.79 164.921 1658.59 164.418 1658.67 163.918L1659.91 156.353L1654.4 150.988C1654.04 150.634 1653.91 150.104 1654.07 149.621C1654.22 149.139 1654.64 148.787 1655.14 148.714L1662.7 147.614L1666.14 140.737C1666.37 140.285 1666.83 140 1667.33 140ZM1667.33 159.667L1664.6 152.311C1664.41 152.701 1664.21 150.09 1663.78 150.153L1670.6 154.811L1662.26 154.929C1662.58 155.232 1662.17 152.882 1662.1 153.311L1666.83 154.555L1668.79 154.837C1669.18 154.629 1667.57 158.848 1667.96 159.056L1672.93 161.695L1670.1 160.811C1670.03 160.382 1667.29 160.197 1667.6 159.893L1676.47 150.964L1666.83 160.667C1666.4 160.604 1668.3 155.701 1668.1 155.311L1667.33 159.667Z" fill="#142251"/>
</g>
</g>
<g filter="url(#filter6_b_10217_67)">
<g clip-path="url(#clip0_10217_67)">
<rect x="-1.52588e-05" y="94.3918" width="454" height="293" rx="22" transform="rotate(-12 -1.52588e-05 94.3918)" fill="#F2F3F8"/>
<g opacity="0.44">
<path d="M64.9584 111.108C66.3705 111.364 67.218 112.157 67.5007 113.487C67.7103 114.473 67.497 115.393 66.8609 116.248C66.2214 117.088 65.1817 117.66 63.7419 117.966C61.3943 118.465 59.6219 117.861 58.4245 116.152L59.9237 114.779C60.6503 115.965 61.7962 116.393 63.3612 116.06C64.1437 115.894 64.7113 115.601 65.064 115.183C65.429 114.745 65.555 114.26 65.4419 113.728C65.3421 113.259 65.0806 112.914 64.6575 112.693C64.2499 112.469 63.7488 112.42 63.1541 112.546L61.4404 112.91L61.0462 111.056L62.3139 110.786C62.9086 110.66 63.3403 110.421 63.6091 110.069C63.8746 109.702 63.9541 109.268 63.8476 108.767C63.7412 108.267 63.4591 107.901 63.0013 107.671C62.5591 107.438 62.0016 107.393 61.3286 107.536C60.014 107.816 59.24 108.561 59.0067 109.772L57.1353 109.164C57.5989 107.266 58.8636 106.097 60.9294 105.658C62.2127 105.385 63.292 105.499 64.1673 106C65.0583 106.498 65.6052 107.224 65.8081 108.179C66.0609 109.368 65.7777 110.345 64.9584 111.108ZM76.6822 102.629L78.7246 102.195L81.2195 113.932L79.1771 114.367L78.748 112.348C78.06 114.113 76.7458 115.202 74.8051 115.615C73.1618 115.964 71.6347 115.667 70.2238 114.724C68.8095 113.765 67.9194 112.425 67.5535 110.703C67.1875 108.982 67.4572 107.403 68.3625 105.967C69.2645 104.516 70.5371 103.616 72.1804 103.267C74.1211 102.854 75.7647 103.315 77.1113 104.648L76.6822 102.629ZM74.6442 113.588C75.8336 113.335 76.7426 112.725 77.3711 111.757C77.9963 110.774 78.1825 109.687 77.9296 108.498C77.6768 107.308 77.0665 106.399 76.0987 105.771C75.1275 105.127 74.0472 104.931 72.8578 105.184C71.684 105.433 70.7846 106.05 70.1594 107.033C69.5309 108.001 69.343 109.08 69.5958 110.269C69.8487 111.459 70.4606 112.375 71.4318 113.019C72.3996 113.648 73.4704 113.837 74.6442 113.588ZM92.6177 99.2416L95.1126 110.979L93.1172 111.404L91.3059 102.882L88.8507 109.685L88.5924 109.74L83.5824 104.524L85.3937 113.045L83.3748 113.474L80.8799 101.737L83.0631 101.272L88.0112 106.428L90.4344 99.7057L92.6177 99.2416ZM97.6756 105.282C98.1019 106.287 98.7522 107 99.6265 107.419C100.516 107.835 101.517 107.925 102.628 107.689C104.178 107.36 105.183 106.549 105.644 105.257L107.591 105.873C106.825 107.885 105.291 109.135 102.99 109.624C101.128 110.02 99.4869 109.763 98.0669 108.855C96.6593 107.927 95.7659 106.571 95.3866 104.787C95.0107 103.019 95.2693 101.426 96.1623 100.009C97.0552 98.5928 98.4095 97.6915 100.225 97.3057C101.946 96.9397 103.477 97.2524 104.816 98.2436C106.168 99.2158 107.025 100.555 107.388 102.261C107.451 102.558 107.492 102.868 107.512 103.191L97.6756 105.282ZM100.634 99.2307C99.5385 99.4635 98.6974 99.9695 98.1105 100.748C97.5203 101.512 97.2489 102.428 97.2963 103.498L105.137 101.831C104.729 100.757 104.111 100.005 103.284 99.5753C102.456 99.1459 101.573 99.0311 100.634 99.2307ZM115.818 94.3102L116.237 96.2821L112.247 97.1304L114.322 106.896L112.28 107.33L110.204 97.5645L106.19 98.4178L105.771 96.4458L115.818 94.3102ZM129.094 103.756L126.559 104.295L120.024 99.8693L121.206 105.433L119.164 105.867L116.669 94.1293L118.711 93.6952L119.814 98.8833L123.782 92.6174L126.411 92.0585L122.008 98.9322L129.094 103.756ZM136.201 89.9777L138.243 89.5436L140.738 101.281L138.696 101.715L138.267 99.6966C137.579 101.462 136.265 102.551 134.324 102.964C132.681 103.313 131.153 103.016 129.743 102.073C128.328 101.114 127.438 99.7736 127.072 98.0521C126.706 96.3306 126.976 94.752 127.881 93.3164C128.783 91.8652 130.056 90.9649 131.699 90.6156C133.64 90.2031 135.283 90.6634 136.63 91.9966L136.201 89.9777ZM134.163 100.937C135.352 100.684 136.261 100.074 136.89 99.1059C137.515 98.1225 137.701 97.036 137.448 95.8466C137.196 94.6571 136.585 93.7482 135.617 93.1197C134.646 92.4755 133.566 92.2798 132.377 92.5326C131.203 92.7821 130.303 93.3986 129.678 94.3821C129.05 95.3499 128.862 96.4286 129.115 97.618C129.367 98.8074 129.979 99.7242 130.951 100.368C131.918 100.997 132.989 101.186 134.163 100.937Z" fill="#142251"/>
<g clip-path="url(#clip1_10217_67)">
<path d="M39.1739 108.123C38.3458 107.533 37.1222 107.746 36.4849 108.727L30.246 118.334C30.0847 118.582 30.1402 118.843 30.3886 119.005C30.6371 119.166 30.8981 119.111 31.0594 118.862L36.22 110.916C36.5208 110.452 37.1401 110.321 37.6033 110.622C38.0665 110.922 38.1981 111.542 37.8973 112.005L32.7368 119.951C31.9738 121.126 30.4742 121.445 29.2993 120.682C28.1245 119.919 27.8058 118.419 28.5687 117.245L34.8076 107.638C36.015 105.778 38.496 105.199 40.3172 106.482C42.1616 107.694 42.7334 110.164 41.4554 111.979L34.1491 123.229C32.4619 125.827 29.1038 126.541 26.5057 124.854C23.9076 123.167 23.1938 119.809 24.881 117.211L31.1199 107.604C31.4207 107.14 32.0401 107.009 32.5032 107.309C32.9664 107.61 33.0981 108.23 32.7973 108.693L26.5584 118.3C25.4727 119.972 25.9233 122.091 27.595 123.177C29.2667 124.262 31.3862 123.812 32.4718 122.14L39.789 110.873C39.7969 110.86 39.8051 110.848 39.8135 110.837C40.404 110.008 40.1911 108.785 39.2099 108.148C39.1977 108.14 39.1857 108.132 39.1739 108.123Z" fill="#142251"/>
</g>
<path d="M414.118 28.1367C414.419 27.6735 415.038 27.5419 415.501 27.8427L421.779 31.9195L425.856 25.6418C426.156 25.1786 426.776 25.047 427.239 25.3478C427.702 25.6486 427.834 26.2679 427.533 26.7311L423.456 33.0088L429.734 37.0855C430.197 37.3863 430.329 38.0057 430.028 38.4688C429.727 38.932 429.108 39.0637 428.645 38.7629L422.367 34.6861L418.29 40.9638C417.989 41.427 417.37 41.5586 416.907 41.2578C416.444 40.957 416.312 40.3377 416.613 39.8745L420.689 33.5968L414.412 29.52C413.949 29.2192 413.817 28.5999 414.118 28.1367Z" fill="#142251"/>
<g clip-path="url(#clip2_10217_67)">
<path d="M369.684 35.5367C369.985 35.0735 370.604 34.9418 371.068 35.2426L374.626 37.5533C375.089 37.8541 375.221 38.4735 374.92 38.9366L367.988 49.6112C367.843 49.8336 367.616 49.9895 367.357 50.0447L364.423 50.6684C363.882 50.7833 363.351 50.4384 363.237 49.8982L362.613 46.9637C362.558 46.7043 362.608 46.4336 362.752 46.2112L369.684 35.5367ZM364.655 46.9531L364.985 48.5042L366.536 48.1745L372.698 38.686L370.817 37.4646L364.655 46.9531ZM357.453 41.9265C357.223 40.8461 357.913 39.784 358.993 39.5544L363.884 38.5148C364.424 38.4 364.955 38.7448 365.07 39.2851C365.185 39.8253 364.84 40.3563 364.3 40.4711L359.409 41.5107L361.904 53.2485L373.642 50.7535L372.602 45.8628C372.487 45.3226 372.832 44.7915 373.372 44.6767C373.913 44.5619 374.444 44.9067 374.558 45.447L375.598 50.3377C375.828 51.4181 375.138 52.4802 374.058 52.7098L362.32 55.2047C361.239 55.4344 360.177 54.7447 359.948 53.6643L357.453 41.9265Z" fill="#142251"/>
</g>
</g>
<path d="M463.864 269.803C463.401 269.502 463.27 268.883 463.57 268.42L471.195 256.678C471.496 256.215 472.115 256.084 472.579 256.384C473.042 256.685 473.173 257.305 472.873 257.768L465.248 269.509C464.947 269.972 464.328 270.104 463.864 269.803ZM469.147 270.849C468.684 270.548 468.552 269.929 468.853 269.466L474.299 261.079C474.6 260.616 475.22 260.484 475.683 260.785C476.146 261.086 476.278 261.705 475.977 262.168L470.53 270.555C470.23 271.018 469.61 271.15 469.147 270.849ZM474.43 271.895C473.967 271.594 473.835 270.975 474.136 270.512L477.403 265.48C477.704 265.016 478.324 264.885 478.787 265.186C479.25 265.486 479.382 266.106 479.081 266.569L475.813 271.601C475.512 272.064 474.893 272.196 474.43 271.895Z" fill="#142251" fill-opacity="0.44"/>
<rect x="11.6426" y="149.168" width="454" height="1" transform="rotate(-12 11.6426 149.168)" fill="#E4E7F1"/>
<path d="M261.914 194.328C267.681 206.236 262.852 222.048 250.046 238.082C237.265 254.084 216.646 270.154 191.21 282.474C165.774 294.793 140.381 301.007 119.902 301.114C99.3821 301.221 83.9814 295.207 78.2142 283.299C72.4469 271.391 77.2761 255.579 90.0824 239.545C102.863 223.543 123.482 207.473 148.918 195.153C174.354 182.834 199.747 176.62 220.226 176.513C240.746 176.406 256.147 182.42 261.914 194.328Z" stroke="#C3C7CF"/>
</g>
</g>
<circle cx="837" cy="66" r="4" fill="#142251"/>
<ellipse cx="846.505" cy="47.7128" rx="11.5" ry="8" transform="rotate(25.8444 846.505 47.7128)" fill="#AFB4C4"/>
<path d="M856.405 52.508C855.533 54.3078 853.673 55.4766 851.279 55.8548C848.888 56.2327 846.013 55.808 843.235 54.4626C840.458 53.1172 838.342 51.1247 837.156 49.0141C835.969 46.9015 835.733 44.7173 836.605 42.9176C837.477 41.1178 839.337 39.949 841.731 39.5707C844.122 39.1928 846.997 39.6175 849.774 40.9629C852.552 42.3083 854.667 44.3009 855.853 46.4115C857.04 48.524 857.276 50.7082 856.405 52.508Z" stroke="#142251" stroke-opacity="0.44"/>
<mask id="path-162-inside-1_10217_67" fill="white">
<path fill-rule="evenodd" clip-rule="evenodd" d="M855.814 41.1103L845.914 36.3151L841.681 45.0538C841.675 45.0657 841.669 45.0778 841.663 45.0899C841.657 45.102 841.652 45.1142 841.646 45.1264L841.461 45.5078L841.511 45.5319C841.167 47.1156 842.703 49.2045 845.196 50.4125C847.69 51.6204 850.281 51.53 851.311 50.2786L851.361 50.303L855.814 41.1103Z"/>
</mask>
<path fill-rule="evenodd" clip-rule="evenodd" d="M855.814 41.1103L845.914 36.3151L841.681 45.0538C841.675 45.0657 841.669 45.0778 841.663 45.0899C841.657 45.102 841.652 45.1142 841.646 45.1264L841.461 45.5078L841.511 45.5319C841.167 47.1156 842.703 49.2045 845.196 50.4125C847.69 51.6204 850.281 51.53 851.311 50.2786L851.361 50.303L855.814 41.1103Z" fill="#AFB4C4"/>
<path d="M845.914 36.3151L846.35 35.4151L845.45 34.9792L845.014 35.8792L845.914 36.3151ZM855.814 41.1103L856.714 41.5463L857.15 40.6463L856.25 40.2104L855.814 41.1103ZM841.681 45.0538L842.572 45.5081L842.577 45.499L842.581 45.4897L841.681 45.0538ZM841.646 45.1264L842.546 45.5623L842.551 45.5531L842.555 45.5437L841.646 45.1264ZM841.461 45.5078L840.561 45.0719L840.125 45.9718L841.025 46.4078L841.461 45.5078ZM841.511 45.5319L842.488 45.7439L842.655 44.9749L841.947 44.6319L841.511 45.5319ZM851.311 50.2786L851.747 49.3786L851.038 49.0356L850.538 49.6432L851.311 50.2786ZM851.361 50.303L850.925 51.203L851.825 51.6389L852.261 50.7389L851.361 50.303ZM845.478 37.2151L855.378 42.0103L856.25 40.2104L846.35 35.4151L845.478 37.2151ZM842.581 45.4897L846.814 36.7511L845.014 35.8792L840.781 44.6178L842.581 45.4897ZM842.563 45.5258C842.566 45.5199 842.569 45.514 842.572 45.5081L840.79 44.5994C840.781 44.6175 840.772 44.6357 840.763 44.654L842.563 45.5258ZM842.555 45.5437C842.558 45.5378 842.56 45.5318 842.563 45.5258L840.763 44.654C840.754 44.6723 840.746 44.6907 840.737 44.7091L842.555 45.5437ZM842.361 45.9437L842.546 45.5623L840.746 44.6905L840.561 45.0719L842.361 45.9437ZM841.947 44.6319L841.897 44.6078L841.025 46.4078L841.075 46.4319L841.947 44.6319ZM845.632 49.5125C844.509 48.9683 843.634 48.24 843.09 47.5136C842.531 46.7672 842.402 46.1435 842.488 45.7439L840.534 45.3198C840.277 46.504 840.743 47.7166 841.489 48.7126C842.25 49.7285 843.39 50.6487 844.761 51.3124L845.632 49.5125ZM850.538 49.6432C850.279 49.9589 849.709 50.2441 848.777 50.2681C847.869 50.2915 846.756 50.0567 845.632 49.5125L844.761 51.3124C846.131 51.9762 847.559 52.3001 848.828 52.2674C850.072 52.2354 851.313 51.8496 852.083 50.9139L850.538 49.6432ZM851.797 49.403L851.747 49.3786L850.875 51.1785L850.925 51.203L851.797 49.403ZM854.914 40.6744L850.461 49.8671L852.261 50.7389L856.714 41.5463L854.914 40.6744Z" fill="#142251" fill-opacity="0.44" mask="url(#path-162-inside-1_10217_67)"/>
<ellipse cx="853.263" cy="33.763" rx="9.5" ry="7.5" transform="rotate(25.8444 853.263 33.763)" fill="#AFB4C4"/>
<path d="M861.363 37.6864C859.722 41.0724 854.79 42.2805 850.211 40.0629C845.633 37.8452 843.523 33.2256 845.163 29.8397C846.803 26.4537 851.736 25.2455 856.314 27.4631C860.893 29.6808 863.003 34.3004 861.363 37.6864Z" stroke="#142251" stroke-opacity="0.44"/>
<ellipse cx="850.549" cy="31.3373" rx="4" ry="3.5" transform="rotate(25.8444 850.549 31.3373)" fill="#E4E7F1"/>
<rect x="841.668" y="54.2585" width="2" height="13" transform="rotate(25.8444 841.668 54.2585)" fill="#9DA7CA"/>
<circle cx="1194" cy="228" r="4" fill="#142251"/>
<ellipse cx="1203.5" cy="209.713" rx="11.5" ry="8" transform="rotate(25.8444 1203.5 209.713)" fill="#AFB4C4"/>
<path d="M1213.4 214.508C1212.53 216.308 1210.67 217.477 1208.28 217.855C1205.89 218.233 1203.01 217.808 1200.24 216.463C1197.46 215.117 1195.34 213.125 1194.16 211.014C1192.97 208.902 1192.73 206.717 1193.61 204.918C1194.48 203.118 1196.34 201.949 1198.73 201.571C1201.12 201.193 1204 201.618 1206.77 202.963C1209.55 204.308 1211.67 206.301 1212.85 208.412C1214.04 210.524 1214.28 212.708 1213.4 214.508Z" stroke="#142251" stroke-opacity="0.44"/>
<mask id="path-171-inside-2_10217_67" fill="white">
<path fill-rule="evenodd" clip-rule="evenodd" d="M1212.81 203.11L1202.91 198.315L1198.68 207.054C1198.68 207.066 1198.67 207.078 1198.66 207.09C1198.66 207.102 1198.65 207.114 1198.65 207.126L1198.46 207.508L1198.51 207.532C1198.17 209.116 1199.7 211.205 1202.2 212.412C1204.69 213.62 1207.28 213.53 1208.31 212.279L1208.36 212.303L1212.81 203.11Z"/>
</mask>
<path fill-rule="evenodd" clip-rule="evenodd" d="M1212.81 203.11L1202.91 198.315L1198.68 207.054C1198.68 207.066 1198.67 207.078 1198.66 207.09C1198.66 207.102 1198.65 207.114 1198.65 207.126L1198.46 207.508L1198.51 207.532C1198.17 209.116 1199.7 211.205 1202.2 212.412C1204.69 213.62 1207.28 213.53 1208.31 212.279L1208.36 212.303L1212.81 203.11Z" fill="#AFB4C4"/>
<path d="M1202.91 198.315L1203.35 197.415L1202.45 196.979L1202.01 197.879L1202.91 198.315ZM1212.81 203.11L1213.71 203.546L1214.15 202.646L1213.25 202.21L1212.81 203.11ZM1198.68 207.054L1199.57 207.508L1199.58 207.499L1199.58 207.49L1198.68 207.054ZM1198.65 207.126L1199.55 207.562L1199.55 207.553L1199.55 207.544L1198.65 207.126ZM1198.46 207.508L1197.56 207.072L1197.13 207.972L1198.03 208.408L1198.46 207.508ZM1198.51 207.532L1199.49 207.744L1199.66 206.975L1198.95 206.632L1198.51 207.532ZM1208.31 212.279L1208.75 211.379L1208.04 211.036L1207.54 211.643L1208.31 212.279ZM1208.36 212.303L1207.93 213.203L1208.83 213.639L1209.26 212.739L1208.36 212.303ZM1202.48 199.215L1212.38 204.01L1213.25 202.21L1203.35 197.415L1202.48 199.215ZM1199.58 207.49L1203.81 198.751L1202.01 197.879L1197.78 206.618L1199.58 207.49ZM1199.56 207.526C1199.57 207.52 1199.57 207.514 1199.57 207.508L1197.79 206.599C1197.78 206.617 1197.77 206.636 1197.76 206.654L1199.56 207.526ZM1199.55 207.544C1199.56 207.538 1199.56 207.532 1199.56 207.526L1197.76 206.654C1197.75 206.672 1197.75 206.691 1197.74 206.709L1199.55 207.544ZM1199.36 207.944L1199.55 207.562L1197.75 206.69L1197.56 207.072L1199.36 207.944ZM1198.95 206.632L1198.9 206.608L1198.03 208.408L1198.08 208.432L1198.95 206.632ZM1202.63 211.512C1201.51 210.968 1200.63 210.24 1200.09 209.514C1199.53 208.767 1199.4 208.143 1199.49 207.744L1197.53 207.32C1197.28 208.504 1197.74 209.717 1198.49 210.713C1199.25 211.729 1200.39 212.649 1201.76 213.312L1202.63 211.512ZM1207.54 211.643C1207.28 211.959 1206.71 212.244 1205.78 212.268C1204.87 212.291 1203.76 212.057 1202.63 211.512L1201.76 213.312C1203.13 213.976 1204.56 214.3 1205.83 214.267C1207.07 214.235 1208.31 213.85 1209.08 212.914L1207.54 211.643ZM1208.8 211.403L1208.75 211.379L1207.87 213.179L1207.93 213.203L1208.8 211.403ZM1211.91 202.674L1207.46 211.867L1209.26 212.739L1213.71 203.546L1211.91 202.674Z" fill="#142251" fill-opacity="0.44" mask="url(#path-171-inside-2_10217_67)"/>
<ellipse cx="1210.26" cy="195.763" rx="9.5" ry="7.5" transform="rotate(25.8444 1210.26 195.763)" fill="#AFB4C4"/>
<path d="M1218.36 199.686C1216.72 203.072 1211.79 204.281 1207.21 202.063C1202.63 199.845 1200.52 195.226 1202.16 191.84C1203.8 188.454 1208.74 187.245 1213.31 189.463C1217.89 191.681 1220 196.3 1218.36 199.686Z" stroke="#142251" stroke-opacity="0.44"/>
<ellipse cx="1207.55" cy="193.337" rx="4" ry="3.5" transform="rotate(25.8444 1207.55 193.337)" fill="#E4E7F1"/>
<rect x="1198.67" y="216.259" width="2" height="13" transform="rotate(25.8444 1198.67 216.259)" fill="#9DA7CA"/>
<circle cx="1495" cy="107" r="4" fill="#142251"/>
<ellipse cx="1504.5" cy="88.7128" rx="11.5" ry="8" transform="rotate(25.8444 1504.5 88.7128)" fill="#AFB4C4"/>
<path d="M1514.4 93.508C1513.53 95.3078 1511.67 96.4766 1509.28 96.8548C1506.89 97.2327 1504.01 96.808 1501.24 95.4626C1498.46 94.1172 1496.34 92.1247 1495.16 90.0141C1493.97 87.9015 1493.73 85.7173 1494.61 83.9176C1495.48 82.1178 1497.34 80.949 1499.73 80.5707C1502.12 80.1928 1505 80.6175 1507.77 81.9629C1510.55 83.3083 1512.67 85.3009 1513.85 87.4115C1515.04 89.524 1515.28 91.7082 1514.4 93.508Z" stroke="#142251" stroke-opacity="0.44"/>
<mask id="path-180-inside-3_10217_67" fill="white">
<path fill-rule="evenodd" clip-rule="evenodd" d="M1513.81 82.1103L1503.91 77.3151L1499.68 86.0538C1499.68 86.0657 1499.67 86.0778 1499.66 86.0899C1499.66 86.102 1499.65 86.1142 1499.65 86.1264L1499.46 86.5078L1499.51 86.5319C1499.17 88.1156 1500.7 90.2045 1503.2 91.4125C1505.69 92.6204 1508.28 92.53 1509.31 91.2786L1509.36 91.303L1513.81 82.1103Z"/>
</mask>
<path fill-rule="evenodd" clip-rule="evenodd" d="M1513.81 82.1103L1503.91 77.3151L1499.68 86.0538C1499.68 86.0657 1499.67 86.0778 1499.66 86.0899C1499.66 86.102 1499.65 86.1142 1499.65 86.1264L1499.46 86.5078L1499.51 86.5319C1499.17 88.1156 1500.7 90.2045 1503.2 91.4125C1505.69 92.6204 1508.28 92.53 1509.31 91.2786L1509.36 91.303L1513.81 82.1103Z" fill="#AFB4C4"/>
<path d="M1503.91 77.3151L1504.35 76.4151L1503.45 75.9792L1503.01 76.8792L1503.91 77.3151ZM1513.81 82.1103L1514.71 82.5463L1515.15 81.6463L1514.25 81.2104L1513.81 82.1103ZM1499.68 86.0538L1500.57 86.5081L1500.58 86.499L1500.58 86.4897L1499.68 86.0538ZM1499.65 86.1264L1500.55 86.5623L1500.55 86.5531L1500.55 86.5437L1499.65 86.1264ZM1499.46 86.5078L1498.56 86.0719L1498.13 86.9718L1499.03 87.4078L1499.46 86.5078ZM1499.51 86.5319L1500.49 86.7439L1500.66 85.9749L1499.95 85.6319L1499.51 86.5319ZM1509.31 91.2786L1509.75 90.3786L1509.04 90.0356L1508.54 90.6432L1509.31 91.2786ZM1509.36 91.303L1508.93 92.203L1509.83 92.6389L1510.26 91.7389L1509.36 91.303ZM1503.48 78.2151L1513.38 83.0103L1514.25 81.2104L1504.35 76.4151L1503.48 78.2151ZM1500.58 86.4897L1504.81 77.7511L1503.01 76.8792L1498.78 85.6178L1500.58 86.4897ZM1500.56 86.5258C1500.57 86.5199 1500.57 86.514 1500.57 86.5081L1498.79 85.5994C1498.78 85.6175 1498.77 85.6357 1498.76 85.654L1500.56 86.5258ZM1500.55 86.5437C1500.56 86.5378 1500.56 86.5318 1500.56 86.5258L1498.76 85.654C1498.75 85.6723 1498.75 85.6907 1498.74 85.7091L1500.55 86.5437ZM1500.36 86.9437L1500.55 86.5623L1498.75 85.6905L1498.56 86.0719L1500.36 86.9437ZM1499.95 85.6319L1499.9 85.6078L1499.03 87.4078L1499.08 87.4319L1499.95 85.6319ZM1503.63 90.5125C1502.51 89.9683 1501.63 89.24 1501.09 88.5136C1500.53 87.7672 1500.4 87.1435 1500.49 86.7439L1498.53 86.3198C1498.28 87.504 1498.74 88.7166 1499.49 89.7126C1500.25 90.7285 1501.39 91.6487 1502.76 92.3124L1503.63 90.5125ZM1508.54 90.6432C1508.28 90.9589 1507.71 91.2441 1506.78 91.2681C1505.87 91.2915 1504.76 91.0567 1503.63 90.5125L1502.76 92.3124C1504.13 92.9762 1505.56 93.3001 1506.83 93.2674C1508.07 93.2354 1509.31 92.8496 1510.08 91.9139L1508.54 90.6432ZM1509.8 90.403L1509.75 90.3786L1508.87 92.1785L1508.93 92.203L1509.8 90.403ZM1512.91 81.6744L1508.46 90.8671L1510.26 91.7389L1514.71 82.5463L1512.91 81.6744Z" fill="#142251" fill-opacity="0.44" mask="url(#path-180-inside-3_10217_67)"/>
<ellipse cx="1511.26" cy="74.763" rx="9.5" ry="7.5" transform="rotate(25.8444 1511.26 74.763)" fill="#AFB4C4"/>
<path d="M1519.36 78.6864C1517.72 82.0724 1512.79 83.2805 1508.21 81.0629C1503.63 78.8452 1501.52 74.2256 1503.16 70.8397C1504.8 67.4537 1509.74 66.2455 1514.31 68.4631C1518.89 70.6808 1521 75.3004 1519.36 78.6864Z" stroke="#142251" stroke-opacity="0.44"/>
<ellipse cx="1508.55" cy="72.3372" rx="4" ry="3.5" transform="rotate(25.8444 1508.55 72.3372)" fill="#E4E7F1"/>
<rect x="1499.67" y="95.2585" width="2" height="13" transform="rotate(25.8444 1499.67 95.2585)" fill="#9DA7CA"/>
<g opacity="0.44">
<path d="M205 52L837 67.5L1193 228.5" stroke="#142251"/>
<path d="M1193.5 228.5L1495 107" stroke="#142251"/>
</g>
<circle cx="205" cy="51" r="4" fill="#142251"/>
<ellipse cx="214.505" cy="32.7128" rx="11.5" ry="8" transform="rotate(25.8444 214.505 32.7128)" fill="#AFB4C4"/>
<path d="M224.405 37.508C223.533 39.3078 221.673 40.4766 219.279 40.8548C216.888 41.2327 214.013 40.808 211.235 39.4626C208.458 38.1172 206.342 36.1247 205.156 34.0141C203.969 31.9015 203.733 29.7173 204.605 27.9176C205.477 26.1178 207.337 24.949 209.73 24.5707C212.122 24.1928 214.997 24.6175 217.774 25.9629C220.552 27.3083 222.667 29.3009 223.853 31.4115C225.04 33.524 225.276 35.7082 224.405 37.508Z" stroke="#142251" stroke-opacity="0.44"/>
<mask id="path-191-inside-4_10217_67" fill="white">
<path fill-rule="evenodd" clip-rule="evenodd" d="M223.814 26.1103L213.914 21.3151L209.681 30.0538C209.675 30.0657 209.669 30.0778 209.663 30.0899C209.657 30.102 209.652 30.1142 209.646 30.1264L209.461 30.5078L209.511 30.5319C209.167 32.1156 210.703 34.2045 213.196 35.4125C215.69 36.6204 218.281 36.53 219.311 35.2786L219.361 35.303L223.814 26.1103Z"/>
</mask>
<path fill-rule="evenodd" clip-rule="evenodd" d="M223.814 26.1103L213.914 21.3151L209.681 30.0538C209.675 30.0657 209.669 30.0778 209.663 30.0899C209.657 30.102 209.652 30.1142 209.646 30.1264L209.461 30.5078L209.511 30.5319C209.167 32.1156 210.703 34.2045 213.196 35.4125C215.69 36.6204 218.281 36.53 219.311 35.2786L219.361 35.303L223.814 26.1103Z" fill="#AFB4C4"/>
<path d="M213.914 21.3151L214.35 20.4151L213.45 19.9792L213.014 20.8792L213.914 21.3151ZM223.814 26.1103L224.714 26.5463L225.15 25.6463L224.25 25.2104L223.814 26.1103ZM209.681 30.0538L210.572 30.5081L210.577 30.499L210.581 30.4897L209.681 30.0538ZM209.646 30.1264L210.546 30.5623L210.551 30.5531L210.555 30.5437L209.646 30.1264ZM209.461 30.5078L208.561 30.0719L208.125 30.9718L209.025 31.4078L209.461 30.5078ZM209.511 30.5319L210.488 30.7439L210.655 29.9749L209.947 29.6319L209.511 30.5319ZM219.311 35.2786L219.747 34.3786L219.038 34.0356L218.538 34.6432L219.311 35.2786ZM219.361 35.303L218.925 36.203L219.825 36.6389L220.261 35.7389L219.361 35.303ZM213.478 22.2151L223.378 27.0103L224.25 25.2104L214.35 20.4151L213.478 22.2151ZM210.581 30.4897L214.814 21.7511L213.014 20.8792L208.781 29.6178L210.581 30.4897ZM210.563 30.5258C210.566 30.5199 210.569 30.514 210.572 30.5081L208.79 29.5994C208.781 29.6175 208.772 29.6357 208.763 29.654L210.563 30.5258ZM210.555 30.5437C210.558 30.5378 210.56 30.5318 210.563 30.5258L208.763 29.654C208.754 29.6723 208.746 29.6907 208.737 29.7091L210.555 30.5437ZM210.361 30.9437L210.546 30.5623L208.746 29.6905L208.561 30.0719L210.361 30.9437ZM209.947 29.6319L209.897 29.6078L209.025 31.4078L209.075 31.4319L209.947 29.6319ZM213.632 34.5125C212.509 33.9683 211.634 33.24 211.09 32.5136C210.531 31.7672 210.402 31.1435 210.488 30.7439L208.534 30.3198C208.277 31.504 208.743 32.7166 209.489 33.7126C210.25 34.7285 211.39 35.6487 212.76 36.3124L213.632 34.5125ZM218.538 34.6432C218.279 34.9589 217.709 35.2441 216.777 35.2681C215.869 35.2915 214.756 35.0567 213.632 34.5125L212.76 36.3124C214.131 36.9762 215.559 37.3001 216.828 37.2674C218.072 37.2354 219.313 36.8496 220.083 35.9139L218.538 34.6432ZM219.797 34.403L219.747 34.3786L218.875 36.1785L218.925 36.203L219.797 34.403ZM222.914 25.6744L218.461 34.8671L220.261 35.7389L224.714 26.5463L222.914 25.6744Z" fill="#142251" fill-opacity="0.44" mask="url(#path-191-inside-4_10217_67)"/>
<ellipse cx="221.263" cy="18.763" rx="9.5" ry="7.5" transform="rotate(25.8444 221.263 18.763)" fill="#AFB4C4"/>
<path d="M229.363 22.6864C227.722 26.0724 222.79 27.2805 218.211 25.0629C213.633 22.8452 211.523 18.2256 213.163 14.8397C214.803 11.4537 219.736 10.2455 224.314 12.4631C228.893 14.6808 231.003 19.3004 229.363 22.6864Z" stroke="#142251" stroke-opacity="0.44"/>
<g filter="url(#filter7_f_10217_67)">
<ellipse cx="218.549" cy="16.3373" rx="4" ry="3.5" transform="rotate(25.8444 218.549 16.3373)" fill="#E4E7F1"/>
</g>
<rect x="209.668" y="39.2585" width="2" height="13" transform="rotate(25.8444 209.668 39.2585)" fill="#9DA7CA"/>
<path fill-rule="evenodd" clip-rule="evenodd" d="M1319.84 229L1326.12 229C1327.56 229 1328.73 230.167 1328.73 231.606C1328.73 233.045 1327.56 234.212 1326.12 234.212H1319.95C1317.57 234.212 1315.94 234.214 1314.68 234.317C1313.45 234.417 1312.8 234.6 1312.34 234.836C1311.26 235.386 1310.39 236.263 1309.84 237.342C1309.6 237.805 1309.42 238.454 1309.32 239.683C1309.21 240.943 1309.21 242.569 1309.21 244.947V251.12C1309.21 252.559 1308.04 253.726 1306.61 253.726C1305.17 253.726 1304 252.559 1304 251.12L1304 244.839C1304 242.596 1304 240.756 1304.12 239.258C1304.25 237.707 1304.52 236.296 1305.19 234.976C1306.24 232.916 1307.92 231.242 1309.98 230.193C1311.3 229.52 1312.71 229.249 1314.26 229.122C1315.76 229 1317.6 229 1319.84 229ZM1369.41 234.317C1368.15 234.214 1366.52 234.212 1364.14 234.212H1357.97C1356.53 234.212 1355.36 233.045 1355.36 231.606C1355.36 230.167 1356.53 229 1357.97 229L1364.25 229C1366.49 229 1368.33 229 1369.83 229.122C1371.38 229.249 1372.79 229.52 1374.11 230.193C1376.17 231.242 1377.85 232.916 1378.9 234.976C1379.57 236.296 1379.84 237.707 1379.97 239.258C1380.09 240.756 1380.09 242.596 1380.09 244.839V251.12C1380.09 252.559 1378.92 253.726 1377.48 253.726C1376.04 253.726 1374.88 252.559 1374.88 251.12V244.947C1374.88 242.569 1374.88 240.943 1374.77 239.683C1374.67 238.454 1374.49 237.805 1374.25 237.342C1373.7 236.263 1372.83 235.386 1371.75 234.836C1371.28 234.6 1370.64 234.417 1369.41 234.317ZM1306.61 280.363C1308.04 280.363 1309.21 281.53 1309.21 282.969V289.141C1309.21 291.519 1309.21 293.146 1309.32 294.406C1309.42 295.635 1309.6 296.284 1309.84 296.747C1310.39 297.826 1311.26 298.703 1312.34 299.252C1312.8 299.489 1313.45 299.672 1314.68 299.772C1315.94 299.875 1317.57 299.877 1319.95 299.877H1326.12C1327.56 299.877 1328.73 301.044 1328.73 302.483C1328.73 303.922 1327.56 305.089 1326.12 305.089H1319.84C1317.6 305.089 1315.76 305.089 1314.26 304.967C1312.71 304.84 1311.3 304.569 1309.98 303.896C1307.92 302.847 1306.24 301.172 1305.19 299.113C1304.52 297.793 1304.25 296.382 1304.12 294.83C1304 293.333 1304 291.493 1304 289.25L1304 282.969C1304 281.53 1305.17 280.363 1306.61 280.363ZM1377.48 280.363C1378.92 280.363 1380.09 281.53 1380.09 282.969V289.25C1380.09 291.493 1380.09 293.333 1379.97 294.83C1379.84 296.382 1379.57 297.793 1378.9 299.113C1377.85 301.172 1376.17 302.847 1374.11 303.896C1372.79 304.569 1371.38 304.84 1369.83 304.967C1368.33 305.089 1366.49 305.089 1364.25 305.089H1357.97C1356.53 305.089 1355.36 303.922 1355.36 302.483C1355.36 301.044 1356.53 299.877 1357.97 299.877H1364.14C1366.52 299.877 1368.15 299.875 1369.41 299.772C1370.64 299.672 1371.28 299.489 1371.75 299.252C1372.83 298.703 1373.7 297.826 1374.25 296.747C1374.49 296.284 1374.67 295.635 1374.77 294.406C1374.88 293.146 1374.88 291.519 1374.88 289.141V282.969C1374.88 281.53 1376.04 280.363 1377.48 280.363Z" fill="#E4E7F1"/>
<path d="M1342.95 273.926C1345.89 273.926 1348.27 271.546 1348.27 268.61C1348.27 265.674 1345.89 263.294 1342.95 263.294C1340.02 263.294 1337.64 265.674 1337.64 268.61C1337.64 271.546 1340.02 273.926 1342.95 273.926Z" fill="#AFB4C4"/>
<path fill-rule="evenodd" clip-rule="evenodd" d="M1328.78 257.535H1333.51C1334.45 257.535 1335.35 257.162 1336.02 256.497L1337.04 255.473C1337.71 254.808 1338.61 254.435 1339.55 254.435H1345.91C1346.85 254.435 1347.76 254.808 1348.42 255.473L1349.44 256.497C1350.11 257.162 1351.01 257.535 1351.95 257.535H1356.24C1358.2 257.535 1359.79 259.122 1359.79 261.079V277.47C1359.79 279.427 1358.2 281.014 1356.24 281.014H1328.78C1326.82 281.014 1325.23 279.427 1325.23 277.47V261.079C1325.23 259.122 1326.82 257.535 1328.78 257.535ZM1351.81 268.61C1351.81 273.503 1347.85 277.47 1342.95 277.47C1338.06 277.47 1334.09 273.503 1334.09 268.61C1334.09 263.717 1338.06 259.75 1342.95 259.75C1347.85 259.75 1351.81 263.717 1351.81 268.61Z" fill="#AFB4C4"/>
<defs>
<filter id="filter0_i_10217_67" x="1471" y="101" width="248" height="104" filterUnits="userSpaceOnUse" color-interpolation-filters="sRGB">
<feFlood flood-opacity="0" result="BackgroundImageFix"/>
<feBlend mode="normal" in="SourceGraphic" in2="BackgroundImageFix" result="shape"/>
<feColorMatrix in="SourceAlpha" type="matrix" values="0 0 0 0 0 0 0 0 0 0 0 0 0 0 0 0 0 0 127 0" result="hardAlpha"/>
<feOffset/>
<feGaussianBlur stdDeviation="6"/>
<feComposite in2="hardAlpha" operator="arithmetic" k2="-1" k3="1"/>
<feColorMatrix type="matrix" values="0 0 0 0 0.894118 0 0 0 0 0.905882 0 0 0 0 0.945098 0 0 0 1 0"/>
<feBlend mode="normal" in2="shape" result="effect1_innerShadow_10217_67"/>
</filter>
<filter id="filter1_i_10217_67" x="1510" y="140" width="26.6667" height="25.4666" filterUnits="userSpaceOnUse" color-interpolation-filters="sRGB">
<feFlood flood-opacity="0" result="BackgroundImageFix"/>
<feBlend mode="normal" in="SourceGraphic" in2="BackgroundImageFix" result="shape"/>
<feColorMatrix in="SourceAlpha" type="matrix" values="0 0 0 0 0 0 0 0 0 0 0 0 0 0 0 0 0 0 127 0" result="hardAlpha"/>
<feOffset/>
<feGaussianBlur stdDeviation="2"/>
<feComposite in2="hardAlpha" operator="arithmetic" k2="-1" k3="1"/>
<feColorMatrix type="matrix" values="0 0 0 0 1 0 0 0 0 1 0 0 0 0 1 0 0 0 1 0"/>
<feBlend mode="normal" in2="shape" result="effect1_innerShadow_10217_67"/>
</filter>
<filter id="filter2_i_10217_67" x="1546" y="140" width="26.6667" height="25.4666" filterUnits="userSpaceOnUse" color-interpolation-filters="sRGB">
<feFlood flood-opacity="0" result="BackgroundImageFix"/>
<feBlend mode="normal" in="SourceGraphic" in2="BackgroundImageFix" result="shape"/>
<feColorMatrix in="SourceAlpha" type="matrix" values="0 0 0 0 0 0 0 0 0 0 0 0 0 0 0 0 0 0 127 0" result="hardAlpha"/>
<feOffset/>
<feGaussianBlur stdDeviation="2"/>
<feComposite in2="hardAlpha" operator="arithmetic" k2="-1" k3="1"/>
<feColorMatrix type="matrix" values="0 0 0 0 1 0 0 0 0 1 0 0 0 0 1 0 0 0 1 0"/>
<feBlend mode="normal" in2="shape" result="effect1_innerShadow_10217_67"/>
</filter>
<filter id="filter3_i_10217_67" x="1582" y="140" width="26.6667" height="25.4666" filterUnits="userSpaceOnUse" color-interpolation-filters="sRGB">
<feFlood flood-opacity="0" result="BackgroundImageFix"/>
<feBlend mode="normal" in="SourceGraphic" in2="BackgroundImageFix" result="shape"/>
<feColorMatrix in="SourceAlpha" type="matrix" values="0 0 0 0 0 0 0 0 0 0 0 0 0 0 0 0 0 0 127 0" result="hardAlpha"/>
<feOffset/>
<feGaussianBlur stdDeviation="2"/>
<feComposite in2="hardAlpha" operator="arithmetic" k2="-1" k3="1"/>
<feColorMatrix type="matrix" values="0 0 0 0 1 0 0 0 0 1 0 0 0 0 1 0 0 0 1 0"/>
<feBlend mode="normal" in2="shape" result="effect1_innerShadow_10217_67"/>
</filter>
<filter id="filter4_i_10217_67" x="1618" y="140" width="26.6667" height="25.4666" filterUnits="userSpaceOnUse" color-interpolation-filters="sRGB">
<feFlood flood-opacity="0" result="BackgroundImageFix"/>
<feBlend mode="normal" in="SourceGraphic" in2="BackgroundImageFix" result="shape"/>
<feColorMatrix in="SourceAlpha" type="matrix" values="0 0 0 0 0 0 0 0 0 0 0 0 0 0 0 0 0 0 127 0" result="hardAlpha"/>
<feOffset/>
<feGaussianBlur stdDeviation="2"/>
<feComposite in2="hardAlpha" operator="arithmetic" k2="-1" k3="1"/>
<feColorMatrix type="matrix" values="0 0 0 0 1 0 0 0 0 1 0 0 0 0 1 0 0 0 1 0"/>
<feBlend mode="normal" in2="shape" result="effect1_innerShadow_10217_67"/>
</filter>
<filter id="filter5_i_10217_67" x="1654" y="140" width="26.6667" height="25.4666" filterUnits="userSpaceOnUse" color-interpolation-filters="sRGB">
<feFlood flood-opacity="0" result="BackgroundImageFix"/>
<feBlend mode="normal" in="SourceGraphic" in2="BackgroundImageFix" result="shape"/>
<feColorMatrix in="SourceAlpha" type="matrix" values="0 0 0 0 0 0 0 0 0 0 0 0 0 0 0 0 0 0 127 0" result="hardAlpha"/>
<feOffset/>
<feGaussianBlur stdDeviation="2"/>
<feComposite in2="hardAlpha" operator="arithmetic" k2="-1" k3="1"/>
<feColorMatrix type="matrix" values="0 0 0 0 1 0 0 0 0 1 0 0 0 0 1 0 0 0 1 0"/>
<feBlend mode="normal" in2="shape" result="effect1_innerShadow_10217_67"/>
</filter>
<filter id="filter6_b_10217_67" x="-40" y="-40" width="584.997" height="460.989" filterUnits="userSpaceOnUse" color-interpolation-filters="sRGB">
<feFlood flood-opacity="0" result="BackgroundImageFix"/>
<feGaussianBlur in="BackgroundImageFix" stdDeviation="20"/>
<feComposite in2="SourceAlpha" operator="in" result="effect1_backgroundBlur_10217_67"/>
<feBlend mode="normal" in="SourceGraphic" in2="effect1_backgroundBlur_10217_67" result="shape"/>
</filter>
<filter id="filter7_f_10217_67" x="210.638" y="8.73633" width="15.8218" height="15.2019" filterUnits="userSpaceOnUse" color-interpolation-filters="sRGB">
<feFlood flood-opacity="0" result="BackgroundImageFix"/>
<feBlend mode="normal" in="SourceGraphic" in2="BackgroundImageFix" result="shape"/>
<feGaussianBlur stdDeviation="2" result="effect1_foregroundBlur_10217_67"/>
</filter>
<clipPath id="clip0_10217_67">
<rect x="-1.52588e-05" y="94.3918" width="454" height="293" rx="22" transform="rotate(-12 -1.52588e-05 94.3918)" fill="white"/>
</clipPath>
<clipPath id="clip1_10217_67">
<rect width="24" height="24" fill="white" transform="translate(18.977 106.716) rotate(-12)"/>
</clipPath>
<clipPath id="clip2_10217_67">
<rect width="24" height="24" fill="white" transform="translate(353.063 35.7031) rotate(-12)"/>
</clipPath>
</defs>
</svg>
